<svg xmlns="http://www.w3.org/2000/svg" xmlns:xlink="http://www.w3.org/1999/xlink" width="300" zoomAndPan="magnify" viewBox="0 0 224.87999 225" height="300" preserveAspectRatio="xMidYMid meet" version="1.0"><defs><clipPath id="304a5fbb97"><path d="M 6.160156 6.222656 L 219.046875 6.222656 L 219.046875 219.109375 L 6.160156 219.109375 Z M 6.160156 6.222656 " clip-rule="nonzero"/></clipPath></defs><g clip-path="url(#304a5fbb97)"><path fill="#3858e9" d="M 117.015625 15.039062 C 173.367188 15.039062 219.046875 60.722656 219.046875 117.074219 C 219.054688 123.589844 218.441406 130.046875 217.207031 136.445312 C 215.976562 142.84375 214.144531 149.066406 211.714844 155.113281 L 200.175781 155.113281 C 199.765625 155.113281 199.367188 155.195312 198.988281 155.351562 C 198.609375 155.507812 198.273438 155.734375 197.980469 156.023438 C 197.691406 156.316406 197.464844 156.652344 197.308594 157.03125 C 197.152344 157.410156 197.070312 157.808594 197.070312 158.21875 L 197.070312 173.863281 L 184.410156 173.863281 L 184.410156 167.296875 C 184.410156 166.886719 184.332031 166.488281 184.171875 166.109375 C 184.015625 165.730469 183.792969 165.394531 183.5 165.101562 C 183.210938 164.8125 182.875 164.585938 182.492188 164.429688 C 182.113281 164.273438 181.71875 164.191406 181.304688 164.191406 L 162.433594 164.191406 C 162.023438 164.191406 161.625 164.273438 161.246094 164.429688 C 160.867188 164.585938 160.53125 164.8125 160.238281 165.101562 C 159.949219 165.394531 159.722656 165.730469 159.566406 166.109375 C 159.40625 166.488281 159.328125 166.886719 159.328125 167.296875 L 159.328125 179.882812 L 143.5625 179.882812 C 143.152344 179.882812 142.753906 179.960938 142.375 180.121094 C 141.992188 180.277344 141.660156 180.5 141.367188 180.792969 C 141.074219 181.085938 140.851562 181.417969 140.695312 181.800781 C 140.535156 182.179688 140.457031 182.578125 140.457031 182.988281 L 140.457031 216.398438 C 132.746094 218.207031 124.933594 219.113281 117.015625 219.109375 C 60.660156 219.109375 14.980469 173.425781 14.980469 117.074219 C 14.96875 108.726562 15.96875 100.5 17.984375 92.398438 C 20.003906 84.296875 22.972656 76.5625 26.894531 69.191406 C 26.929688 69.714844 27.015625 70.230469 27.144531 70.738281 C 27.277344 71.242188 27.457031 71.734375 27.679688 72.207031 C 27.902344 72.679688 28.171875 73.128906 28.480469 73.550781 C 28.789062 73.976562 29.132812 74.367188 29.515625 74.722656 C 29.898438 75.082031 30.308594 75.402344 30.753906 75.679688 C 31.195312 75.960938 31.660156 76.195312 32.148438 76.390625 C 32.632812 76.582031 33.132812 76.726562 33.648438 76.824219 C 34.164062 76.921875 34.683594 76.972656 35.207031 76.972656 L 41.660156 76.972656 C 42.207031 76.972656 42.75 76.917969 43.285156 76.8125 C 43.820312 76.707031 44.339844 76.546875 44.847656 76.339844 C 45.351562 76.128906 45.832031 75.871094 46.285156 75.570312 C 46.742188 75.265625 47.160156 74.917969 47.546875 74.53125 C 47.933594 74.144531 48.28125 73.726562 48.585938 73.269531 C 48.886719 72.816406 49.144531 72.335938 49.355469 71.832031 C 49.5625 71.324219 49.722656 70.804688 49.828125 70.269531 C 49.933594 69.734375 49.988281 69.191406 49.988281 68.644531 C 49.988281 68.453125 50.039062 68.28125 50.140625 68.121094 C 50.246094 67.964844 50.386719 67.847656 50.5625 67.773438 C 50.738281 67.703125 50.917969 67.683594 51.105469 67.722656 C 51.289062 67.761719 51.449219 67.847656 51.582031 67.984375 C 51.96875 68.371094 52.390625 68.714844 52.84375 69.019531 C 53.300781 69.324219 53.777344 69.578125 54.285156 69.789062 C 54.789062 70 55.308594 70.15625 55.847656 70.261719 C 56.382812 70.371094 56.925781 70.421875 57.472656 70.421875 C 58.019531 70.421875 58.558594 70.371094 59.097656 70.261719 C 59.632812 70.15625 60.152344 70 60.65625 69.789062 C 61.164062 69.578125 61.644531 69.324219 62.097656 69.019531 C 62.554688 68.714844 62.972656 68.371094 63.359375 67.984375 L 67.925781 63.421875 C 68.3125 63.035156 68.65625 62.613281 68.960938 62.160156 C 69.261719 61.703125 69.519531 61.222656 69.730469 60.71875 C 69.9375 60.214844 70.097656 59.691406 70.203125 59.15625 C 70.308594 58.621094 70.363281 58.078125 70.363281 57.53125 C 70.363281 56.984375 70.308594 56.441406 70.203125 55.90625 C 70.097656 55.371094 69.9375 54.847656 69.730469 54.34375 C 69.519531 53.839844 69.261719 53.359375 68.960938 52.902344 C 68.65625 52.449219 68.3125 52.027344 67.925781 51.640625 C 67.789062 51.507812 67.703125 51.351562 67.664062 51.164062 C 67.625 50.976562 67.640625 50.796875 67.714844 50.621094 C 67.789062 50.445312 67.902344 50.308594 68.0625 50.203125 C 68.21875 50.097656 68.394531 50.046875 68.582031 50.046875 C 69.128906 50.046875 69.671875 49.996094 70.207031 49.886719 C 70.746094 49.78125 71.265625 49.625 71.769531 49.414062 C 72.277344 49.203125 72.753906 48.949219 73.210938 48.644531 C 73.664062 48.339844 74.085938 47.996094 74.472656 47.609375 C 74.859375 47.222656 75.203125 46.800781 75.507812 46.347656 C 75.8125 45.890625 76.070312 45.410156 76.277344 44.90625 C 76.488281 44.402344 76.644531 43.882812 76.753906 43.34375 C 76.859375 42.808594 76.914062 42.265625 76.914062 41.71875 L 76.914062 35.265625 C 76.914062 34.742188 76.863281 34.222656 76.765625 33.707031 C 76.667969 33.195312 76.523438 32.695312 76.328125 32.207031 C 76.136719 31.71875 75.898438 31.253906 75.621094 30.8125 C 75.339844 30.371094 75.019531 29.957031 74.664062 29.574219 C 74.304688 29.191406 73.914062 28.847656 73.492188 28.539062 C 73.070312 28.230469 72.621094 27.964844 72.148438 27.738281 C 71.671875 27.515625 71.183594 27.335938 70.675781 27.207031 C 70.167969 27.074219 69.65625 26.992188 69.132812 26.957031 C 76.5 23.03125 84.238281 20.0625 92.339844 18.046875 C 100.441406 16.027344 108.664062 15.027344 117.015625 15.039062 Z M 91.742188 133.222656 C 94.121094 136.925781 97.160156 139.96875 100.867188 142.34375 L 117.886719 125.324219 C 118.070312 125.132812 118.296875 125.011719 118.554688 124.957031 C 118.816406 124.902344 119.070312 124.925781 119.316406 125.027344 C 120.140625 125.351562 120.984375 125.617188 121.847656 125.820312 C 122.707031 126.023438 123.582031 126.164062 124.464844 126.242188 C 125.347656 126.316406 126.230469 126.332031 127.117188 126.277344 C 128 126.226562 128.878906 126.109375 129.746094 125.929688 C 130.613281 125.75 131.464844 125.507812 132.296875 125.203125 C 133.128906 124.902344 133.933594 124.539062 134.714844 124.117188 C 135.496094 123.699219 136.242188 123.222656 136.953125 122.691406 C 137.664062 122.164062 138.332031 121.585938 138.957031 120.957031 C 142.09375 117.824219 145.203125 110.671875 144.429688 105.679688 C 144.390625 105.429688 144.289062 105.210938 144.128906 105.019531 C 143.964844 104.828125 143.765625 104.695312 143.527344 104.617188 C 143.289062 104.539062 143.046875 104.53125 142.804688 104.589844 C 142.558594 104.648438 142.347656 104.765625 142.171875 104.941406 L 133.480469 113.636719 C 133.316406 113.808594 133.117188 113.925781 132.886719 113.988281 C 132.65625 114.050781 132.425781 114.046875 132.195312 113.980469 L 123.40625 111.628906 C 123.175781 111.570312 122.976562 111.457031 122.808594 111.285156 C 122.636719 111.117188 122.523438 110.917969 122.464844 110.6875 L 120.109375 101.898438 C 120.046875 101.667969 120.042969 101.4375 120.105469 101.207031 C 120.167969 100.976562 120.285156 100.777344 120.453125 100.609375 L 129.148438 91.914062 C 129.324219 91.738281 129.441406 91.527344 129.5 91.28125 C 129.558594 91.039062 129.550781 90.796875 129.472656 90.558594 C 129.394531 90.320312 129.257812 90.121094 129.070312 89.957031 C 128.878906 89.796875 128.660156 89.695312 128.410156 89.65625 C 123.414062 88.882812 116.265625 91.992188 113.128906 95.128906 C 112.503906 95.753906 111.925781 96.421875 111.394531 97.132812 C 110.863281 97.84375 110.390625 98.589844 109.96875 99.371094 C 109.546875 100.152344 109.1875 100.957031 108.882812 101.789062 C 108.578125 102.621094 108.335938 103.472656 108.15625 104.339844 C 107.976562 105.207031 107.863281 106.085938 107.808594 106.96875 C 107.757812 107.855469 107.769531 108.738281 107.84375 109.621094 C 107.921875 110.503906 108.0625 111.375 108.265625 112.238281 C 108.46875 113.101562 108.734375 113.945312 109.058594 114.769531 C 109.160156 115.015625 109.183594 115.269531 109.128906 115.53125 C 109.074219 115.789062 108.953125 116.015625 108.761719 116.199219 L 91.742188 133.21875 Z M 68.585938 33.144531 C 62.230469 33.144531 59.039062 25.449219 63.535156 20.953125 C 63.734375 20.753906 63.886719 20.527344 63.992188 20.265625 C 64.101562 20.007812 64.15625 19.734375 64.15625 19.453125 C 64.15625 19.171875 64.101562 18.902344 63.992188 18.644531 C 63.886719 18.382812 63.734375 18.15625 63.535156 17.957031 L 58.96875 13.390625 C 58.769531 13.195312 58.542969 13.039062 58.28125 12.933594 C 58.023438 12.824219 57.753906 12.769531 57.472656 12.769531 C 57.191406 12.769531 56.917969 12.824219 56.660156 12.933594 C 56.398438 13.039062 56.171875 13.195312 55.972656 13.390625 C 51.480469 17.886719 43.78125 14.695312 43.78125 8.34375 C 43.78125 8.0625 43.726562 7.789062 43.617188 7.53125 C 43.511719 7.269531 43.359375 7.042969 43.160156 6.84375 C 42.960938 6.644531 42.730469 6.492188 42.472656 6.382812 C 42.210938 6.277344 41.941406 6.222656 41.660156 6.222656 L 35.207031 6.222656 C 34.925781 6.222656 34.65625 6.277344 34.394531 6.382812 C 34.136719 6.492188 33.90625 6.644531 33.707031 6.84375 C 33.507812 7.042969 33.355469 7.269531 33.246094 7.53125 C 33.140625 7.789062 33.085938 8.0625 33.085938 8.34375 C 33.085938 14.695312 25.386719 17.886719 20.894531 13.390625 C 20.695312 13.195312 20.464844 13.039062 20.207031 12.933594 C 19.945312 12.824219 19.675781 12.769531 19.394531 12.769531 C 19.113281 12.769531 18.84375 12.824219 18.582031 12.933594 C 18.324219 13.039062 18.09375 13.195312 17.894531 13.390625 L 13.332031 17.957031 C 13.132812 18.15625 12.980469 18.382812 12.871094 18.644531 C 12.765625 18.902344 12.710938 19.171875 12.710938 19.453125 C 12.710938 19.734375 12.765625 20.007812 12.871094 20.265625 C 12.980469 20.527344 13.132812 20.753906 13.332031 20.953125 C 17.828125 25.449219 14.636719 33.144531 8.28125 33.144531 C 8 33.144531 7.730469 33.199219 7.472656 33.308594 C 7.210938 33.414062 6.980469 33.566406 6.78125 33.765625 C 6.585938 33.964844 6.429688 34.195312 6.324219 34.453125 C 6.214844 34.714844 6.160156 34.984375 6.160156 35.265625 L 6.160156 41.71875 C 6.160156 42 6.214844 42.269531 6.324219 42.53125 C 6.429688 42.789062 6.585938 43.019531 6.78125 43.21875 C 6.980469 43.417969 7.210938 43.570312 7.46875 43.679688 C 7.730469 43.785156 8 43.839844 8.28125 43.839844 C 14.636719 43.839844 17.824219 51.539062 13.332031 56.03125 C 13.132812 56.230469 12.980469 56.460938 12.871094 56.71875 C 12.765625 56.980469 12.710938 57.25 12.710938 57.53125 C 12.710938 57.8125 12.765625 58.082031 12.871094 58.34375 C 12.980469 58.601562 13.132812 58.832031 13.332031 59.03125 L 17.894531 63.59375 C 18.09375 63.792969 18.324219 63.945312 18.582031 64.054688 C 18.84375 64.160156 19.113281 64.214844 19.394531 64.214844 C 19.675781 64.214844 19.945312 64.160156 20.207031 64.054688 C 20.464844 63.945312 20.695312 63.792969 20.894531 63.59375 C 25.394531 59.09375 33.085938 62.28125 33.085938 68.644531 C 33.085938 68.925781 33.140625 69.195312 33.246094 69.457031 C 33.355469 69.714844 33.507812 69.945312 33.707031 70.144531 C 33.90625 70.34375 34.136719 70.496094 34.394531 70.601562 C 34.65625 70.710938 34.925781 70.765625 35.207031 70.765625 L 41.660156 70.765625 C 41.941406 70.765625 42.210938 70.710938 42.472656 70.601562 C 42.730469 70.496094 42.960938 70.34375 43.160156 70.144531 C 43.359375 69.945312 43.511719 69.714844 43.617188 69.457031 C 43.726562 69.195312 43.78125 68.925781 43.78125 68.644531 C 43.78125 62.289062 51.480469 59.101562 55.972656 63.59375 C 56.171875 63.792969 56.398438 63.945312 56.660156 64.054688 C 56.917969 64.160156 57.191406 64.214844 57.472656 64.214844 C 57.753906 64.214844 58.023438 64.160156 58.28125 64.054688 C 58.542969 63.945312 58.769531 63.792969 58.96875 63.59375 L 63.535156 59.03125 C 63.734375 58.832031 63.886719 58.601562 63.992188 58.34375 C 64.101562 58.082031 64.15625 57.8125 64.15625 57.53125 C 64.15625 57.25 64.101562 56.980469 63.992188 56.71875 C 63.886719 56.460938 63.734375 56.230469 63.535156 56.03125 C 59.039062 51.539062 62.230469 43.839844 68.585938 43.839844 C 68.867188 43.839844 69.136719 43.785156 69.394531 43.679688 C 69.65625 43.570312 69.882812 43.417969 70.082031 43.21875 C 70.28125 43.019531 70.433594 42.789062 70.542969 42.53125 C 70.652344 42.269531 70.703125 42 70.703125 41.71875 L 70.703125 35.265625 C 70.703125 34.984375 70.652344 34.714844 70.542969 34.453125 C 70.433594 34.195312 70.28125 33.964844 70.082031 33.765625 C 69.882812 33.566406 69.65625 33.414062 69.394531 33.308594 C 69.136719 33.199219 68.867188 33.144531 68.585938 33.144531 Z M 38.433594 54.261719 C 37.398438 54.261719 36.371094 54.164062 35.355469 53.960938 C 34.339844 53.757812 33.355469 53.460938 32.398438 53.0625 C 31.441406 52.667969 30.53125 52.179688 29.671875 51.605469 C 28.8125 51.03125 28.015625 50.375 27.28125 49.644531 C 26.550781 48.914062 25.894531 48.117188 25.320312 47.253906 C 24.746094 46.394531 24.257812 45.484375 23.863281 44.527344 C 23.464844 43.570312 23.167969 42.585938 22.964844 41.570312 C 22.761719 40.554688 22.664062 39.527344 22.664062 38.492188 C 22.664062 37.457031 22.761719 36.433594 22.964844 35.417969 C 23.167969 34.402344 23.464844 33.414062 23.863281 32.457031 C 24.257812 31.5 24.746094 30.59375 25.320312 29.730469 C 25.894531 28.871094 26.550781 28.074219 27.28125 27.339844 C 28.011719 26.609375 28.808594 25.957031 29.671875 25.378906 C 30.53125 24.804688 31.441406 24.320312 32.398438 23.921875 C 33.355469 23.527344 34.339844 23.226562 35.355469 23.027344 C 36.371094 22.824219 37.398438 22.722656 38.433594 22.722656 C 39.46875 22.722656 40.492188 22.824219 41.507812 23.027344 C 42.523438 23.226562 43.511719 23.527344 44.46875 23.921875 C 45.425781 24.320312 46.332031 24.804688 47.195312 25.378906 C 48.054688 25.957031 48.851562 26.609375 49.585938 27.339844 C 50.316406 28.074219 50.96875 28.871094 51.546875 29.730469 C 52.121094 30.59375 52.605469 31.5 53.003906 32.457031 C 53.398438 33.414062 53.699219 34.402344 53.898438 35.417969 C 54.101562 36.433594 54.203125 37.457031 54.203125 38.492188 C 54.203125 39.527344 54.101562 40.554688 53.898438 41.570312 C 53.699219 42.585938 53.398438 43.570312 53.003906 44.527344 C 52.605469 45.484375 52.121094 46.394531 51.546875 47.253906 C 50.96875 48.117188 50.316406 48.910156 49.585938 49.644531 C 48.851562 50.375 48.054688 51.03125 47.195312 51.605469 C 46.332031 52.179688 45.425781 52.667969 44.46875 53.0625 C 43.511719 53.460938 42.527344 53.757812 41.511719 53.960938 C 40.496094 54.164062 39.46875 54.261719 38.433594 54.261719 Z M 215.945312 161.324219 L 203.28125 161.324219 L 203.28125 216.003906 L 215.945312 216.003906 Z M 159.328125 186.09375 L 146.667969 186.09375 L 146.667969 216.003906 L 159.328125 216.003906 Z M 178.199219 170.402344 L 165.539062 170.402344 L 165.539062 216.003906 L 178.199219 216.003906 Z M 184.410156 180.074219 L 184.410156 216.003906 L 197.074219 216.003906 L 197.074219 180.074219 Z M 145.589844 88.496094 C 144.652344 87.5625 143.675781 86.671875 142.652344 85.832031 C 141.628906 84.996094 140.566406 84.207031 139.464844 83.472656 C 138.363281 82.734375 137.230469 82.054688 136.0625 81.433594 C 134.898438 80.808594 133.703125 80.242188 132.480469 79.738281 C 131.257812 79.230469 130.011719 78.785156 128.746094 78.402344 C 127.476562 78.015625 126.195312 77.695312 124.898438 77.4375 C 123.597656 77.179688 122.292969 76.984375 120.972656 76.855469 C 119.65625 76.726562 118.335938 76.660156 117.011719 76.660156 C 115.691406 76.660156 114.371094 76.726562 113.050781 76.855469 C 111.734375 76.984375 110.425781 77.179688 109.128906 77.4375 C 107.832031 77.695312 106.546875 78.015625 105.28125 78.402344 C 104.015625 78.785156 102.769531 79.230469 101.546875 79.738281 C 100.324219 80.242188 99.128906 80.808594 97.964844 81.433594 C 96.796875 82.054688 95.660156 82.734375 94.5625 83.472656 C 93.460938 84.207031 92.398438 84.996094 91.375 85.832031 C 90.351562 86.671875 89.375 87.5625 88.4375 88.496094 C 87.5 89.433594 86.613281 90.414062 85.773438 91.4375 C 84.933594 92.457031 84.148438 93.519531 83.410156 94.621094 C 82.675781 95.722656 81.996094 96.855469 81.371094 98.023438 C 80.75 99.191406 80.183594 100.386719 79.675781 101.609375 C 79.171875 102.832031 78.726562 104.074219 78.339844 105.34375 C 77.957031 106.609375 77.636719 107.890625 77.378906 109.1875 C 77.117188 110.488281 76.925781 111.796875 76.796875 113.113281 C 76.664062 114.429688 76.601562 115.75 76.601562 117.074219 C 76.601562 118.398438 76.664062 119.71875 76.796875 121.035156 C 76.925781 122.351562 77.117188 123.660156 77.378906 124.957031 C 77.636719 126.253906 77.957031 127.539062 78.339844 128.804688 C 78.726562 130.070312 79.171875 131.316406 79.675781 132.539062 C 80.183594 133.761719 80.75 134.957031 81.371094 136.125 C 81.996094 137.292969 82.675781 138.425781 83.410156 139.527344 C 84.148438 140.625 84.933594 141.6875 85.773438 142.710938 C 86.613281 143.734375 87.5 144.714844 88.4375 145.648438 C 89.375 146.585938 90.351562 147.472656 91.375 148.3125 C 92.398438 149.152344 93.460938 149.941406 94.5625 150.675781 C 95.660156 151.410156 96.796875 152.089844 97.964844 152.714844 C 99.128906 153.339844 100.324219 153.902344 101.546875 154.410156 C 102.769531 154.917969 104.015625 155.363281 105.28125 155.746094 C 106.546875 156.128906 107.832031 156.453125 109.128906 156.710938 C 110.425781 156.96875 111.734375 157.160156 113.050781 157.292969 C 114.371094 157.421875 115.691406 157.488281 117.011719 157.488281 C 118.335938 157.488281 119.65625 157.421875 120.972656 157.292969 C 122.292969 157.160156 123.597656 156.96875 124.898438 156.710938 C 126.195312 156.453125 127.476562 156.128906 128.746094 155.746094 C 130.011719 155.363281 131.257812 154.917969 132.480469 154.410156 C 133.703125 153.902344 134.898438 153.339844 136.0625 152.714844 C 137.230469 152.089844 138.363281 151.410156 139.464844 150.675781 C 140.566406 149.941406 141.628906 149.152344 142.652344 148.3125 C 143.675781 147.472656 144.652344 146.585938 145.589844 145.648438 C 146.527344 144.714844 147.414062 143.734375 148.253906 142.710938 C 149.09375 141.6875 149.878906 140.625 150.617188 139.527344 C 151.351562 138.425781 152.03125 137.292969 152.65625 136.125 C 153.277344 134.957031 153.84375 133.761719 154.351562 132.539062 C 154.855469 131.316406 155.300781 130.070312 155.6875 128.804688 C 156.070312 127.539062 156.390625 126.253906 156.648438 124.957031 C 156.90625 123.660156 157.101562 122.351562 157.230469 121.035156 C 157.359375 119.71875 157.425781 118.398438 157.425781 117.074219 C 157.425781 115.75 157.359375 114.429688 157.230469 113.113281 C 157.101562 111.796875 156.90625 110.488281 156.648438 109.1875 C 156.390625 107.890625 156.070312 106.609375 155.6875 105.34375 C 155.300781 104.074219 154.855469 102.832031 154.351562 101.609375 C 153.84375 100.386719 153.277344 99.191406 152.65625 98.023438 C 152.03125 96.855469 151.351562 95.722656 150.617188 94.621094 C 149.878906 93.519531 149.09375 92.457031 148.253906 91.4375 C 147.414062 90.414062 146.527344 89.433594 145.589844 88.496094 Z M 32.214844 117.074219 C 32.214844 117.566406 32.257812 118.054688 32.339844 118.539062 C 32.425781 119.023438 32.550781 119.496094 32.71875 119.957031 C 32.886719 120.421875 33.089844 120.867188 33.335938 121.292969 C 33.578125 121.71875 33.859375 122.121094 34.171875 122.5 C 34.484375 122.878906 34.828125 123.230469 35.203125 123.546875 C 35.578125 123.867188 35.976562 124.152344 36.402344 124.402344 C 36.824219 124.648438 37.265625 124.863281 37.726562 125.035156 C 38.1875 125.207031 38.660156 125.339844 39.140625 125.429688 C 39.625 125.523438 40.113281 125.570312 40.605469 125.578125 C 41.097656 125.585938 41.585938 125.550781 42.070312 125.472656 C 42.554688 125.394531 43.03125 125.273438 43.496094 125.113281 C 43.960938 124.953125 44.410156 124.753906 44.839844 124.515625 C 45.269531 124.277344 45.675781 124.003906 46.058594 123.699219 C 46.441406 123.390625 46.796875 123.050781 47.121094 122.679688 C 47.445312 122.308594 47.734375 121.914062 47.988281 121.496094 C 48.246094 121.074219 48.464844 120.636719 48.644531 120.179688 L 63.109375 120.179688 C 63.542969 120.179688 63.960938 120.089844 64.355469 119.917969 C 64.753906 119.742188 65.101562 119.496094 65.394531 119.175781 C 65.6875 118.855469 65.90625 118.492188 66.046875 118.078125 C 66.1875 117.667969 66.238281 117.246094 66.203125 116.816406 C 66.21875 114.304688 66.414062 111.804688 66.800781 109.324219 C 67.183594 106.84375 67.746094 104.402344 68.492188 102.003906 C 69.238281 99.605469 70.15625 97.277344 71.246094 95.011719 C 72.335938 92.75 73.585938 90.582031 75 88.503906 C 76.410156 86.425781 77.96875 84.464844 79.671875 82.617188 C 81.375 80.773438 83.203125 79.0625 85.15625 77.484375 C 87.113281 75.910156 89.175781 74.488281 91.339844 73.21875 C 93.507812 71.945312 95.757812 70.84375 98.085938 69.90625 C 98.464844 69.75 98.796875 69.53125 99.085938 69.242188 C 99.378906 68.957031 99.601562 68.625 99.761719 68.246094 C 99.917969 67.871094 100 67.480469 100.003906 67.070312 C 100.007812 66.664062 99.933594 66.269531 99.78125 65.890625 C 99.628906 65.511719 99.410156 65.175781 99.128906 64.882812 C 98.84375 64.589844 98.511719 64.363281 98.136719 64.203125 C 97.765625 64.039062 97.371094 63.953125 96.964844 63.945312 C 96.558594 63.941406 96.164062 64.011719 95.78125 64.15625 C 93.277344 65.164062 90.855469 66.339844 88.515625 67.691406 C 86.179688 69.042969 83.949219 70.550781 81.824219 72.21875 C 79.699219 73.882812 77.703125 75.691406 75.839844 77.644531 C 73.972656 79.59375 72.25 81.667969 70.679688 83.863281 C 69.105469 86.054688 67.699219 88.351562 66.453125 90.746094 C 65.207031 93.140625 64.136719 95.613281 63.238281 98.160156 C 62.34375 100.707031 61.632812 103.304688 61.109375 105.953125 C 60.582031 108.601562 60.246094 111.273438 60.101562 113.96875 L 48.644531 113.96875 C 48.464844 113.511719 48.246094 113.074219 47.988281 112.652344 C 47.734375 112.230469 47.445312 111.835938 47.121094 111.46875 C 46.796875 111.097656 46.441406 110.757812 46.058594 110.449219 C 45.675781 110.140625 45.269531 109.867188 44.839844 109.628906 C 44.410156 109.390625 43.960938 109.191406 43.496094 109.03125 C 43.03125 108.871094 42.554688 108.753906 42.070312 108.675781 C 41.585938 108.597656 41.097656 108.5625 40.605469 108.570312 C 40.113281 108.574219 39.625 108.625 39.140625 108.714844 C 38.660156 108.808594 38.1875 108.9375 37.726562 109.113281 C 37.265625 109.285156 36.824219 109.496094 36.402344 109.746094 C 35.976562 109.996094 35.578125 110.28125 35.203125 110.601562 C 34.828125 110.917969 34.484375 111.269531 34.171875 111.644531 C 33.859375 112.023438 33.578125 112.425781 33.335938 112.855469 C 33.089844 113.28125 32.886719 113.726562 32.71875 114.1875 C 32.550781 114.652344 32.425781 115.125 32.339844 115.609375 C 32.257812 116.09375 32.214844 116.582031 32.214844 117.074219 Z M 117.015625 201.875 C 117.503906 201.875 117.992188 201.832031 118.476562 201.746094 C 118.960938 201.660156 119.4375 201.535156 119.898438 201.367188 C 120.359375 201.203125 120.804688 200.996094 121.234375 200.753906 C 121.660156 200.507812 122.0625 200.230469 122.441406 199.914062 C 122.820312 199.601562 123.167969 199.257812 123.488281 198.882812 C 123.808594 198.507812 124.089844 198.109375 124.339844 197.6875 C 124.589844 197.261719 124.800781 196.820312 124.976562 196.359375 C 125.148438 195.902344 125.28125 195.429688 125.371094 194.945312 C 125.464844 194.460938 125.511719 193.976562 125.519531 193.484375 C 125.527344 192.992188 125.492188 192.503906 125.414062 192.015625 C 125.335938 191.53125 125.214844 191.054688 125.054688 190.589844 C 124.894531 190.125 124.695312 189.679688 124.457031 189.25 C 124.21875 188.816406 123.945312 188.410156 123.636719 188.027344 C 123.328125 187.644531 122.988281 187.292969 122.621094 186.96875 C 122.25 186.644531 121.855469 186.351562 121.433594 186.097656 C 121.015625 185.84375 120.574219 185.625 120.117188 185.445312 L 120.117188 170.980469 C 120.117188 170.542969 120.03125 170.128906 119.855469 169.730469 C 119.683594 169.332031 119.433594 168.988281 119.117188 168.695312 C 118.796875 168.398438 118.429688 168.183594 118.019531 168.042969 C 117.609375 167.902344 117.1875 167.847656 116.753906 167.886719 C 114.242188 167.871094 111.746094 167.671875 109.265625 167.289062 C 106.78125 166.90625 104.34375 166.339844 101.945312 165.59375 C 99.546875 164.851562 97.214844 163.933594 94.953125 162.84375 C 92.691406 161.75 90.519531 160.5 88.445312 159.089844 C 86.367188 157.675781 84.40625 156.121094 82.558594 154.417969 C 80.710938 152.714844 79 150.886719 77.425781 148.929688 C 75.851562 146.972656 74.425781 144.914062 73.15625 142.746094 C 71.886719 140.578125 70.785156 138.332031 69.847656 136 C 69.691406 135.621094 69.472656 135.285156 69.1875 134.988281 C 68.898438 134.695312 68.566406 134.46875 68.1875 134.308594 C 67.8125 134.148438 67.417969 134.066406 67.007812 134.058594 C 66.597656 134.054688 66.199219 134.128906 65.820312 134.28125 C 65.4375 134.433594 65.101562 134.65625 64.808594 134.941406 C 64.515625 135.230469 64.289062 135.5625 64.125 135.9375 C 63.964844 136.316406 63.882812 136.710938 63.875 137.121094 C 63.871094 137.53125 63.945312 137.925781 64.097656 138.308594 C 65.105469 140.8125 66.28125 143.234375 67.632812 145.574219 C 68.980469 147.910156 70.488281 150.140625 72.15625 152.265625 C 73.824219 154.390625 75.632812 156.386719 77.582031 158.25 C 79.535156 160.117188 81.605469 161.839844 83.800781 163.410156 C 85.996094 164.984375 88.292969 166.390625 90.6875 167.636719 C 93.082031 168.882812 95.550781 169.953125 98.101562 170.851562 C 100.648438 171.746094 103.246094 172.457031 105.894531 172.980469 C 108.542969 173.507812 111.214844 173.84375 113.910156 173.988281 L 113.910156 185.445312 C 113.453125 185.625 113.011719 185.84375 112.59375 186.097656 C 112.171875 186.355469 111.777344 186.644531 111.40625 186.96875 C 111.039062 187.292969 110.699219 187.644531 110.390625 188.027344 C 110.082031 188.410156 109.808594 188.820312 109.570312 189.25 C 109.332031 189.679688 109.132812 190.128906 108.972656 190.59375 C 108.8125 191.058594 108.691406 191.53125 108.613281 192.019531 C 108.535156 192.503906 108.5 192.992188 108.507812 193.484375 C 108.515625 193.976562 108.5625 194.464844 108.65625 194.945312 C 108.746094 195.429688 108.878906 195.902344 109.050781 196.363281 C 109.226562 196.820312 109.4375 197.265625 109.6875 197.6875 C 109.9375 198.109375 110.21875 198.511719 110.539062 198.882812 C 110.859375 199.257812 111.207031 199.601562 111.585938 199.917969 C 111.964844 200.230469 112.367188 200.507812 112.792969 200.753906 C 113.222656 200.996094 113.667969 201.203125 114.128906 201.371094 C 114.589844 201.535156 115.066406 201.664062 115.550781 201.746094 C 116.035156 201.832031 116.523438 201.875 117.015625 201.875 Z M 201.8125 117.074219 C 201.8125 116.582031 201.769531 116.09375 201.6875 115.609375 C 201.601562 115.125 201.476562 114.652344 201.308594 114.1875 C 201.140625 113.726562 200.9375 113.28125 200.691406 112.855469 C 200.449219 112.425781 200.167969 112.023438 199.855469 111.644531 C 199.542969 111.265625 199.199219 110.917969 198.824219 110.597656 C 198.449219 110.28125 198.050781 109.996094 197.625 109.746094 C 197.203125 109.496094 196.761719 109.285156 196.300781 109.113281 C 195.839844 108.9375 195.367188 108.804688 194.886719 108.714844 C 194.402344 108.625 193.914062 108.574219 193.421875 108.566406 C 192.929688 108.5625 192.441406 108.597656 191.957031 108.675781 C 191.472656 108.753906 190.996094 108.871094 190.53125 109.03125 C 190.066406 109.191406 189.617188 109.390625 189.1875 109.628906 C 188.757812 109.867188 188.351562 110.140625 187.96875 110.449219 C 187.585938 110.757812 187.230469 111.097656 186.90625 111.46875 C 186.582031 111.835938 186.292969 112.230469 186.039062 112.652344 C 185.78125 113.074219 185.5625 113.511719 185.386719 113.96875 L 170.917969 113.96875 C 170.484375 113.96875 170.070312 114.054688 169.671875 114.230469 C 169.273438 114.40625 168.929688 114.652344 168.632812 114.972656 C 168.339844 115.292969 168.121094 115.65625 167.980469 116.066406 C 167.839844 116.476562 167.789062 116.898438 167.824219 117.332031 C 167.8125 119.84375 167.613281 122.339844 167.230469 124.824219 C 166.84375 127.304688 166.28125 129.746094 165.535156 132.144531 C 164.789062 134.542969 163.871094 136.871094 162.78125 139.132812 C 161.691406 141.398438 160.441406 143.566406 159.027344 145.644531 C 157.617188 147.71875 156.058594 149.683594 154.355469 151.527344 C 152.65625 153.375 150.824219 155.085938 148.871094 156.660156 C 146.914062 158.238281 144.851562 159.660156 142.6875 160.929688 C 140.519531 162.199219 138.269531 163.304688 135.941406 164.242188 C 135.558594 164.394531 135.222656 164.613281 134.925781 164.898438 C 134.632812 165.1875 134.40625 165.519531 134.242188 165.898438 C 134.082031 166.277344 134 166.671875 133.992188 167.082031 C 133.988281 167.492188 134.0625 167.886719 134.214844 168.269531 C 134.371094 168.652344 134.589844 168.988281 134.878906 169.28125 C 135.164062 169.574219 135.496094 169.804688 135.875 169.964844 C 136.253906 170.125 136.648438 170.207031 137.058594 170.214844 C 137.46875 170.21875 137.867188 170.140625 138.246094 169.988281 C 140.753906 168.984375 143.175781 167.804688 145.511719 166.453125 C 147.851562 165.105469 150.082031 163.597656 152.207031 161.929688 C 154.328125 160.261719 156.324219 158.453125 158.191406 156.503906 C 160.058594 154.554688 161.777344 152.480469 163.347656 150.285156 C 164.921875 148.089844 166.332031 145.796875 167.578125 143.402344 C 168.824219 141.003906 169.894531 138.535156 170.789062 135.988281 C 171.683594 133.441406 172.394531 130.84375 172.917969 128.195312 C 173.445312 125.546875 173.78125 122.875 173.929688 120.179688 L 185.386719 120.179688 C 185.566406 120.636719 185.78125 121.074219 186.039062 121.496094 C 186.292969 121.914062 186.585938 122.308594 186.910156 122.679688 C 187.234375 123.050781 187.585938 123.390625 187.96875 123.699219 C 188.351562 124.007812 188.757812 124.28125 189.1875 124.515625 C 189.621094 124.753906 190.066406 124.953125 190.53125 125.113281 C 190.996094 125.277344 191.472656 125.394531 191.957031 125.472656 C 192.441406 125.550781 192.933594 125.585938 193.421875 125.578125 C 193.914062 125.574219 194.402344 125.523438 194.886719 125.433594 C 195.371094 125.339844 195.839844 125.207031 196.300781 125.035156 C 196.761719 124.863281 197.203125 124.652344 197.628906 124.402344 C 198.050781 124.152344 198.449219 123.867188 198.824219 123.546875 C 199.199219 123.230469 199.542969 122.878906 199.855469 122.5 C 200.171875 122.121094 200.449219 121.71875 200.695312 121.292969 C 200.9375 120.867188 201.144531 120.421875 201.308594 119.957031 C 201.476562 119.496094 201.601562 119.023438 201.6875 118.539062 C 201.773438 118.054688 201.8125 117.566406 201.8125 117.074219 Z M 117.015625 32.273438 C 116.523438 32.273438 116.035156 32.316406 115.550781 32.402344 C 115.066406 32.484375 114.589844 32.613281 114.128906 32.777344 C 113.667969 32.945312 113.222656 33.152344 112.792969 33.394531 C 112.367188 33.640625 111.964844 33.917969 111.585938 34.230469 C 111.207031 34.546875 110.859375 34.890625 110.539062 35.265625 C 110.222656 35.636719 109.9375 36.039062 109.6875 36.460938 C 109.4375 36.886719 109.226562 37.328125 109.050781 37.789062 C 108.878906 38.246094 108.746094 38.71875 108.65625 39.203125 C 108.566406 39.6875 108.515625 40.171875 108.507812 40.664062 C 108.5 41.15625 108.539062 41.644531 108.617188 42.128906 C 108.695312 42.617188 108.8125 43.089844 108.972656 43.554688 C 109.132812 44.019531 109.332031 44.46875 109.570312 44.898438 C 109.808594 45.328125 110.082031 45.738281 110.390625 46.121094 C 110.699219 46.503906 111.039062 46.855469 111.40625 47.179688 C 111.777344 47.503906 112.171875 47.792969 112.59375 48.050781 C 113.011719 48.304688 113.453125 48.523438 113.910156 48.703125 L 113.910156 63.167969 C 113.910156 63.601562 113.996094 64.019531 114.171875 64.417969 C 114.34375 64.816406 114.59375 65.160156 114.910156 65.453125 C 115.230469 65.75 115.597656 65.964844 116.007812 66.105469 C 116.417969 66.246094 116.839844 66.300781 117.273438 66.261719 C 119.785156 66.277344 122.28125 66.476562 124.761719 66.859375 C 127.246094 67.242188 129.683594 67.808594 132.082031 68.554688 C 134.480469 69.296875 136.8125 70.214844 139.074219 71.304688 C 141.335938 72.398438 143.507812 73.648438 145.582031 75.058594 C 147.660156 76.472656 149.621094 78.027344 151.46875 79.730469 C 153.316406 81.433594 155.027344 83.261719 156.601562 85.21875 C 158.175781 87.175781 159.601562 89.234375 160.871094 91.402344 C 162.140625 93.570312 163.242188 95.816406 164.179688 98.148438 C 164.332031 98.527344 164.554688 98.867188 164.839844 99.160156 C 165.128906 99.453125 165.460938 99.679688 165.835938 99.839844 C 166.214844 100.003906 166.609375 100.085938 167.019531 100.089844 C 167.429688 100.09375 167.824219 100.019531 168.207031 99.867188 C 168.589844 99.714844 168.925781 99.496094 169.21875 99.210938 C 169.511719 98.921875 169.738281 98.589844 169.902344 98.210938 C 170.0625 97.835938 170.144531 97.441406 170.152344 97.03125 C 170.15625 96.621094 170.082031 96.222656 169.929688 95.84375 C 168.921875 93.335938 167.746094 90.914062 166.394531 88.578125 C 165.046875 86.238281 163.535156 84.007812 161.871094 81.882812 C 160.203125 79.761719 158.394531 77.765625 156.445312 75.898438 C 154.492188 74.03125 152.421875 72.3125 150.226562 70.738281 C 148.03125 69.167969 145.734375 67.757812 143.339844 66.511719 C 140.945312 65.265625 138.476562 64.195312 135.925781 63.300781 C 133.378906 62.402344 130.78125 61.695312 128.132812 61.167969 C 125.484375 60.640625 122.8125 60.304688 120.117188 60.160156 L 120.117188 48.703125 C 120.574219 48.523438 121.015625 48.304688 121.433594 48.050781 C 121.855469 47.792969 122.25 47.503906 122.621094 47.179688 C 122.988281 46.855469 123.328125 46.503906 123.636719 46.121094 C 123.945312 45.738281 124.21875 45.328125 124.457031 44.898438 C 124.695312 44.46875 124.894531 44.019531 125.054688 43.554688 C 125.214844 43.089844 125.332031 42.617188 125.410156 42.128906 C 125.488281 41.644531 125.527344 41.15625 125.519531 40.664062 C 125.511719 40.171875 125.460938 39.6875 125.371094 39.203125 C 125.28125 38.71875 125.148438 38.246094 124.976562 37.789062 C 124.800781 37.328125 124.589844 36.886719 124.339844 36.460938 C 124.089844 36.039062 123.804688 35.636719 123.488281 35.265625 C 123.167969 34.890625 122.820312 34.546875 122.441406 34.230469 C 122.0625 33.917969 121.660156 33.640625 121.234375 33.394531 C 120.804688 33.152344 120.359375 32.945312 119.898438 32.777344 C 119.4375 32.613281 118.960938 32.484375 118.476562 32.402344 C 117.992188 32.316406 117.503906 32.273438 117.015625 32.273438 Z M 117.015625 32.273438 " fill-opacity="1" fill-rule="evenodd"/></g></svg>