<svg xmlns="http://www.w3.org/2000/svg" xmlns:xlink="http://www.w3.org/1999/xlink" width="300" zoomAndPan="magnify" viewBox="0 0 224.87999 225" height="300" preserveAspectRatio="xMidYMid meet" version="1.0"><defs><clipPath id="39960ecdb6"><path d="M 17.71875 3.28125 L 207.367188 3.28125 L 207.367188 221.414062 L 17.71875 221.414062 Z M 17.71875 3.28125 " clip-rule="nonzero"/></clipPath></defs><path fill="#3858e9" d="M 152.660156 149.125 C 152.179688 149.125 151.707031 149.078125 151.238281 148.984375 C 150.765625 148.890625 150.3125 148.753906 149.867188 148.570312 C 149.425781 148.386719 149.003906 148.160156 148.605469 147.894531 C 148.207031 147.628906 147.839844 147.328125 147.5 146.988281 C 147.164062 146.648438 146.859375 146.28125 146.59375 145.882812 C 146.328125 145.484375 146.105469 145.0625 145.921875 144.621094 C 145.738281 144.179688 145.597656 143.722656 145.503906 143.253906 C 145.410156 142.78125 145.367188 142.308594 145.367188 141.828125 L 145.367188 134.535156 C 145.367188 133.574219 145.273438 132.625 145.085938 131.6875 C 144.898438 130.746094 144.621094 129.835938 144.253906 128.949219 C 143.886719 128.0625 143.4375 127.222656 142.90625 126.425781 C 142.375 125.628906 141.769531 124.894531 141.09375 124.214844 C 140.414062 123.539062 139.679688 122.933594 138.882812 122.402344 C 138.085938 121.867188 137.246094 121.417969 136.359375 121.050781 C 135.476562 120.6875 134.5625 120.410156 133.621094 120.222656 C 132.683594 120.035156 131.734375 119.941406 130.777344 119.941406 C 130.292969 119.941406 129.828125 120.035156 129.382812 120.21875 C 128.933594 120.40625 128.539062 120.667969 128.199219 121.011719 C 127.855469 121.351562 127.59375 121.746094 127.40625 122.195312 C 127.222656 122.640625 127.128906 123.105469 127.128906 123.589844 C 127.128906 124.074219 127.222656 124.539062 127.40625 124.984375 C 127.59375 125.433594 127.855469 125.828125 128.199219 126.167969 C 128.539062 126.511719 128.933594 126.773438 129.382812 126.960938 C 129.828125 127.144531 130.292969 127.238281 130.777344 127.238281 C 131.253906 127.238281 131.730469 127.285156 132.199219 127.378906 C 132.667969 127.472656 133.125 127.609375 133.566406 127.792969 C 134.011719 127.976562 134.429688 128.199219 134.828125 128.46875 C 135.226562 128.734375 135.597656 129.035156 135.933594 129.375 C 136.273438 129.714844 136.574219 130.082031 136.839844 130.480469 C 137.109375 130.878906 137.332031 131.296875 137.515625 131.742188 C 137.699219 132.183594 137.835938 132.640625 137.929688 133.109375 C 138.023438 133.578125 138.070312 134.054688 138.070312 134.535156 L 138.070312 141.828125 C 138.070312 142.863281 138.179688 143.890625 138.398438 144.902344 C 138.617188 145.914062 138.9375 146.890625 139.363281 147.835938 C 139.792969 148.78125 140.3125 149.667969 140.929688 150.5 C 141.546875 151.332031 142.242188 152.089844 143.023438 152.773438 C 142.242188 153.457031 141.546875 154.214844 140.929688 155.046875 C 140.3125 155.878906 139.792969 156.765625 139.363281 157.710938 C 138.9375 158.652344 138.617188 159.632812 138.398438 160.644531 C 138.179688 161.65625 138.070312 162.679688 138.070312 163.714844 L 138.070312 171.011719 C 138.070312 171.492188 138.023438 171.964844 137.929688 172.4375 C 137.835938 172.90625 137.699219 173.363281 137.515625 173.804688 C 137.332031 174.246094 137.109375 174.667969 136.839844 175.066406 C 136.574219 175.464844 136.273438 175.832031 135.933594 176.171875 C 135.597656 176.511719 135.226562 176.8125 134.828125 177.078125 C 134.429688 177.34375 134.011719 177.570312 133.566406 177.753906 C 133.125 177.9375 132.667969 178.074219 132.199219 178.167969 C 131.730469 178.261719 131.253906 178.308594 130.777344 178.308594 C 130.292969 178.308594 129.828125 178.402344 129.382812 178.585938 C 128.933594 178.769531 128.539062 179.035156 128.199219 179.375 C 127.855469 179.71875 127.59375 180.113281 127.40625 180.558594 C 127.222656 181.007812 127.128906 181.472656 127.128906 181.957031 C 127.128906 182.441406 127.222656 182.90625 127.40625 183.351562 C 127.59375 183.800781 127.855469 184.195312 128.199219 184.535156 C 128.539062 184.878906 128.933594 185.140625 129.382812 185.328125 C 129.828125 185.511719 130.292969 185.605469 130.777344 185.605469 C 131.734375 185.605469 132.683594 185.511719 133.621094 185.324219 C 134.5625 185.136719 135.476562 184.859375 136.359375 184.492188 C 137.246094 184.125 138.085938 183.675781 138.882812 183.144531 C 139.679688 182.613281 140.414062 182.007812 141.09375 181.332031 C 141.769531 180.652344 142.375 179.914062 142.90625 179.121094 C 143.4375 178.324219 143.886719 177.480469 144.253906 176.597656 C 144.621094 175.710938 144.898438 174.800781 145.085938 173.859375 C 145.273438 172.917969 145.367188 171.96875 145.367188 171.011719 L 145.367188 163.714844 C 145.367188 163.238281 145.410156 162.761719 145.503906 162.292969 C 145.597656 161.824219 145.738281 161.367188 145.921875 160.925781 C 146.105469 160.480469 146.328125 160.0625 146.59375 159.664062 C 146.859375 159.265625 147.164062 158.898438 147.5 158.558594 C 147.839844 158.21875 148.207031 157.917969 148.605469 157.652344 C 149.003906 157.382812 149.425781 157.160156 149.867188 156.976562 C 150.3125 156.792969 150.765625 156.65625 151.238281 156.5625 C 151.707031 156.46875 152.179688 156.421875 152.660156 156.421875 C 153.144531 156.421875 153.609375 156.328125 154.054688 156.144531 C 154.5 155.957031 154.894531 155.695312 155.238281 155.351562 C 155.582031 155.011719 155.84375 154.617188 156.027344 154.167969 C 156.214844 153.722656 156.304688 153.257812 156.304688 152.773438 C 156.304688 152.289062 156.214844 151.824219 156.027344 151.378906 C 155.84375 150.929688 155.582031 150.535156 155.238281 150.195312 C 154.894531 149.851562 154.5 149.585938 154.054688 149.402344 C 153.609375 149.21875 153.144531 149.125 152.660156 149.125 Z M 152.660156 149.125 " fill-opacity="1" fill-rule="nonzero"/><path fill="#3858e9" d="M 72.421875 134.535156 C 72.421875 134.054688 72.46875 133.578125 72.5625 133.109375 C 72.65625 132.640625 72.796875 132.183594 72.980469 131.742188 C 73.160156 131.296875 73.386719 130.878906 73.652344 130.480469 C 73.917969 130.082031 74.222656 129.714844 74.558594 129.375 C 74.898438 129.035156 75.265625 128.734375 75.664062 128.46875 C 76.0625 128.199219 76.484375 127.976562 76.925781 127.792969 C 77.367188 127.609375 77.824219 127.472656 78.292969 127.378906 C 78.765625 127.285156 79.238281 127.238281 79.71875 127.238281 C 80.203125 127.238281 80.667969 127.144531 81.113281 126.960938 C 81.558594 126.773438 81.953125 126.511719 82.296875 126.167969 C 82.636719 125.828125 82.902344 125.433594 83.085938 124.984375 C 83.273438 124.539062 83.363281 124.074219 83.363281 123.589844 C 83.363281 123.105469 83.273438 122.640625 83.085938 122.195312 C 82.902344 121.746094 82.636719 121.351562 82.296875 121.011719 C 81.953125 120.667969 81.558594 120.40625 81.113281 120.21875 C 80.667969 120.035156 80.203125 119.941406 79.71875 119.941406 C 78.757812 119.941406 77.8125 120.035156 76.871094 120.222656 C 75.933594 120.410156 75.019531 120.6875 74.136719 121.050781 C 73.25 121.417969 72.410156 121.867188 71.613281 122.402344 C 70.816406 122.933594 70.078125 123.539062 69.402344 124.214844 C 68.726562 124.894531 68.121094 125.628906 67.585938 126.425781 C 67.054688 127.222656 66.605469 128.0625 66.238281 128.949219 C 65.875 129.835938 65.597656 130.746094 65.410156 131.6875 C 65.222656 132.625 65.128906 133.574219 65.128906 134.535156 L 65.128906 141.828125 C 65.128906 142.308594 65.082031 142.78125 64.988281 143.253906 C 64.894531 143.722656 64.757812 144.179688 64.574219 144.621094 C 64.390625 145.0625 64.167969 145.484375 63.898438 145.882812 C 63.632812 146.28125 63.332031 146.648438 62.992188 146.988281 C 62.652344 147.328125 62.285156 147.628906 61.886719 147.894531 C 61.488281 148.160156 61.070312 148.386719 60.625 148.570312 C 60.183594 148.753906 59.726562 148.890625 59.257812 148.984375 C 58.789062 149.078125 58.3125 149.125 57.835938 149.125 C 57.351562 149.125 56.886719 149.21875 56.4375 149.402344 C 55.992188 149.585938 55.597656 149.851562 55.257812 150.195312 C 54.914062 150.535156 54.652344 150.929688 54.464844 151.378906 C 54.28125 151.824219 54.1875 152.289062 54.1875 152.773438 C 54.1875 153.257812 54.28125 153.722656 54.464844 154.167969 C 54.652344 154.617188 54.914062 155.011719 55.257812 155.351562 C 55.597656 155.695312 55.992188 155.957031 56.4375 156.144531 C 56.886719 156.328125 57.351562 156.421875 57.835938 156.421875 C 58.3125 156.421875 58.789062 156.46875 59.257812 156.5625 C 59.726562 156.65625 60.183594 156.792969 60.625 156.976562 C 61.070312 157.160156 61.488281 157.382812 61.886719 157.652344 C 62.285156 157.917969 62.652344 158.21875 62.992188 158.558594 C 63.332031 158.898438 63.632812 159.265625 63.898438 159.664062 C 64.167969 160.0625 64.390625 160.480469 64.574219 160.925781 C 64.757812 161.367188 64.894531 161.824219 64.988281 162.292969 C 65.082031 162.761719 65.128906 163.238281 65.128906 163.714844 L 65.128906 171.011719 C 65.128906 171.96875 65.222656 172.917969 65.410156 173.859375 C 65.597656 174.800781 65.875 175.710938 66.238281 176.597656 C 66.605469 177.480469 67.054688 178.324219 67.585938 179.121094 C 68.121094 179.914062 68.726562 180.652344 69.402344 181.332031 C 70.078125 182.007812 70.816406 182.613281 71.613281 183.144531 C 72.410156 183.675781 73.25 184.125 74.136719 184.492188 C 75.019531 184.859375 75.933594 185.136719 76.871094 185.324219 C 77.8125 185.511719 78.757812 185.605469 79.71875 185.605469 C 80.203125 185.605469 80.667969 185.511719 81.113281 185.328125 C 81.558594 185.140625 81.953125 184.878906 82.296875 184.535156 C 82.636719 184.195312 82.902344 183.800781 83.085938 183.351562 C 83.273438 182.90625 83.363281 182.441406 83.363281 181.957031 C 83.363281 181.472656 83.273438 181.007812 83.085938 180.558594 C 82.902344 180.113281 82.636719 179.71875 82.296875 179.375 C 81.953125 179.035156 81.558594 178.769531 81.113281 178.585938 C 80.667969 178.402344 80.203125 178.308594 79.71875 178.308594 C 79.238281 178.308594 78.765625 178.261719 78.292969 178.167969 C 77.824219 178.074219 77.367188 177.9375 76.925781 177.753906 C 76.484375 177.570312 76.0625 177.34375 75.664062 177.078125 C 75.265625 176.8125 74.898438 176.511719 74.558594 176.171875 C 74.222656 175.832031 73.917969 175.464844 73.652344 175.066406 C 73.386719 174.667969 73.160156 174.246094 72.980469 173.804688 C 72.796875 173.363281 72.65625 172.90625 72.5625 172.4375 C 72.46875 171.964844 72.421875 171.492188 72.421875 171.011719 L 72.421875 163.714844 C 72.425781 162.679688 72.316406 161.65625 72.097656 160.644531 C 71.878906 159.632812 71.554688 158.652344 71.128906 157.710938 C 70.703125 156.765625 70.179688 155.878906 69.566406 155.046875 C 68.949219 154.214844 68.25 153.457031 67.472656 152.773438 C 68.25 152.089844 68.949219 151.332031 69.566406 150.5 C 70.179688 149.667969 70.703125 148.78125 71.128906 147.835938 C 71.554688 146.890625 71.878906 145.914062 72.097656 144.902344 C 72.316406 143.890625 72.425781 142.863281 72.421875 141.828125 Z M 72.421875 134.535156 " fill-opacity="1" fill-rule="nonzero"/><g clip-path="url(#39960ecdb6)"><path fill="#3858e9" d="M 203.71875 3.207031 L 35.953125 3.207031 C 35.46875 3.207031 35.003906 3.300781 34.558594 3.484375 C 34.109375 3.671875 33.714844 3.933594 33.375 4.277344 C 33.03125 4.617188 32.769531 5.011719 32.582031 5.460938 C 32.398438 5.90625 32.304688 6.371094 32.304688 6.855469 L 32.304688 17.800781 L 21.363281 17.800781 C 20.878906 17.800781 20.414062 17.894531 19.96875 18.078125 C 19.523438 18.261719 19.128906 18.527344 18.785156 18.867188 C 18.441406 19.210938 18.179688 19.605469 17.996094 20.050781 C 17.808594 20.5 17.71875 20.964844 17.71875 21.449219 L 17.71875 218.433594 C 17.71875 218.917969 17.808594 219.382812 17.996094 219.832031 C 18.179688 220.277344 18.441406 220.671875 18.785156 221.015625 C 19.128906 221.355469 19.523438 221.621094 19.96875 221.804688 C 20.414062 221.992188 20.878906 222.082031 21.363281 222.082031 L 189.128906 222.082031 C 189.613281 222.082031 190.078125 221.992188 190.527344 221.804688 C 190.972656 221.621094 191.367188 221.355469 191.710938 221.015625 C 192.050781 220.671875 192.316406 220.277344 192.5 219.832031 C 192.683594 219.382812 192.777344 218.917969 192.777344 218.433594 L 192.777344 207.492188 L 203.71875 207.492188 C 204.203125 207.492188 204.667969 207.398438 205.113281 207.214844 C 205.5625 207.027344 205.957031 206.765625 206.296875 206.421875 C 206.640625 206.082031 206.902344 205.6875 207.089844 205.238281 C 207.273438 204.792969 207.367188 204.328125 207.367188 203.84375 L 207.367188 6.855469 C 207.367188 6.371094 207.273438 5.90625 207.089844 5.460938 C 206.902344 5.011719 206.640625 4.617188 206.296875 4.277344 C 205.957031 3.933594 205.5625 3.671875 205.113281 3.484375 C 204.667969 3.300781 204.203125 3.207031 203.71875 3.207031 Z M 35.953125 50.632812 C 35.953125 50.035156 35.980469 49.4375 36.039062 48.84375 C 36.097656 48.25 36.1875 47.660156 36.304688 47.074219 C 36.417969 46.488281 36.5625 45.910156 36.738281 45.335938 C 36.910156 44.765625 37.113281 44.203125 37.339844 43.652344 C 37.570312 43.097656 37.824219 42.558594 38.105469 42.035156 C 38.386719 41.507812 38.695312 40.996094 39.027344 40.496094 C 39.359375 40 39.710938 39.523438 40.089844 39.058594 C 40.46875 38.597656 40.871094 38.15625 41.292969 37.734375 C 41.714844 37.3125 42.15625 36.910156 42.621094 36.53125 C 43.082031 36.152344 43.558594 35.796875 44.058594 35.464844 C 44.554688 35.132812 45.066406 34.828125 45.59375 34.546875 C 46.117188 34.265625 46.65625 34.007812 47.210938 33.78125 C 47.761719 33.550781 48.324219 33.351562 48.894531 33.175781 C 49.464844 33.003906 50.042969 32.859375 50.628906 32.742188 C 51.214844 32.625 51.804688 32.539062 52.402344 32.480469 C 52.996094 32.421875 53.589844 32.390625 54.1875 32.390625 L 61.480469 32.390625 C 61.964844 32.390625 62.429688 32.484375 62.878906 32.667969 C 63.324219 32.855469 63.71875 33.117188 64.0625 33.460938 C 64.402344 33.800781 64.667969 34.195312 64.851562 34.644531 C 65.035156 35.089844 65.128906 35.554688 65.128906 36.039062 C 65.128906 36.523438 65.035156 36.988281 64.851562 37.4375 C 64.667969 37.882812 64.402344 38.277344 64.0625 38.617188 C 63.71875 38.960938 63.324219 39.226562 62.878906 39.410156 C 62.429688 39.59375 61.964844 39.6875 61.480469 39.6875 L 54.1875 39.6875 C 53.46875 39.691406 52.757812 39.761719 52.054688 39.902344 C 51.351562 40.042969 50.667969 40.253906 50.007812 40.527344 C 49.34375 40.804688 48.714844 41.140625 48.117188 41.542969 C 47.519531 41.941406 46.96875 42.394531 46.460938 42.902344 C 45.953125 43.410156 45.5 43.960938 45.101562 44.558594 C 44.699219 45.15625 44.363281 45.785156 44.089844 46.449219 C 43.8125 47.109375 43.605469 47.792969 43.460938 48.5 C 43.320312 49.203125 43.25 49.914062 43.246094 50.632812 L 43.246094 57.925781 C 43.25 58.644531 43.320312 59.355469 43.460938 60.058594 C 43.605469 60.765625 43.8125 61.445312 44.089844 62.109375 C 44.363281 62.773438 44.699219 63.402344 45.101562 64 C 45.5 64.597656 45.953125 65.148438 46.460938 65.65625 C 46.96875 66.164062 47.519531 66.617188 48.117188 67.015625 C 48.714844 67.417969 49.34375 67.753906 50.003906 68.03125 C 50.667969 68.304688 51.351562 68.515625 52.054688 68.65625 C 52.757812 68.796875 53.46875 68.867188 54.1875 68.871094 L 61.480469 68.871094 C 61.964844 68.871094 62.429688 68.964844 62.878906 69.148438 C 63.324219 69.332031 63.71875 69.597656 64.0625 69.9375 C 64.402344 70.28125 64.667969 70.675781 64.851562 71.121094 C 65.035156 71.570312 65.128906 72.035156 65.128906 72.519531 C 65.128906 73.003906 65.035156 73.46875 64.851562 73.914062 C 64.667969 74.363281 64.402344 74.757812 64.0625 75.097656 C 63.71875 75.441406 63.324219 75.703125 62.878906 75.890625 C 62.429688 76.074219 61.964844 76.167969 61.480469 76.167969 L 54.1875 76.167969 C 53.589844 76.167969 52.996094 76.136719 52.402344 76.078125 C 51.804688 76.019531 51.214844 75.933594 50.628906 75.816406 C 50.042969 75.699219 49.464844 75.554688 48.894531 75.382812 C 48.324219 75.207031 47.761719 75.007812 47.210938 74.777344 C 46.65625 74.550781 46.117188 74.292969 45.59375 74.011719 C 45.066406 73.730469 44.554688 73.425781 44.058594 73.09375 C 43.558594 72.761719 43.082031 72.40625 42.621094 72.027344 C 42.15625 71.648438 41.714844 71.246094 41.292969 70.824219 C 40.871094 70.402344 40.46875 69.960938 40.089844 69.5 C 39.710938 69.035156 39.359375 68.558594 39.027344 68.058594 C 38.695312 67.5625 38.386719 67.050781 38.105469 66.523438 C 37.824219 66 37.570312 65.460938 37.339844 64.90625 C 37.113281 64.355469 36.910156 63.792969 36.738281 63.222656 C 36.5625 62.648438 36.417969 62.070312 36.304688 61.484375 C 36.1875 60.898438 36.097656 60.308594 36.039062 59.714844 C 35.980469 59.121094 35.953125 58.523438 35.953125 57.925781 Z M 185.484375 214.789062 L 25.011719 214.789062 L 25.011719 90.757812 L 185.484375 90.757812 Z M 88.835938 57.925781 L 85.1875 57.925781 C 84.351562 57.925781 83.519531 57.84375 82.699219 57.683594 C 81.875 57.519531 81.078125 57.277344 80.304688 56.957031 C 79.527344 56.632812 78.792969 56.242188 78.097656 55.773438 C 77.398438 55.308594 76.753906 54.78125 76.164062 54.1875 C 75.570312 53.59375 75.039062 52.949219 74.574219 52.253906 C 74.109375 51.554688 73.714844 50.820312 73.394531 50.046875 C 73.074219 49.269531 72.832031 48.472656 72.667969 47.648438 C 72.503906 46.828125 72.421875 45.996094 72.421875 45.160156 C 72.421875 44.320312 72.503906 43.492188 72.667969 42.667969 C 72.832031 41.847656 73.074219 41.046875 73.394531 40.273438 C 73.714844 39.5 74.109375 38.761719 74.574219 38.066406 C 75.039062 37.367188 75.570312 36.722656 76.164062 36.132812 C 76.753906 35.539062 77.398438 35.007812 78.097656 34.542969 C 78.792969 34.078125 79.527344 33.683594 80.304688 33.363281 C 81.078125 33.042969 81.875 32.800781 82.699219 32.636719 C 83.519531 32.472656 84.351562 32.390625 85.1875 32.390625 L 90.660156 32.390625 C 91.375 32.394531 92.085938 32.464844 92.792969 32.605469 C 93.496094 32.75 94.179688 32.957031 94.839844 33.234375 C 95.503906 33.507812 96.132812 33.847656 96.730469 34.246094 C 97.328125 34.644531 97.878906 35.097656 98.386719 35.605469 C 98.894531 36.113281 99.347656 36.667969 99.746094 37.261719 C 100.144531 37.859375 100.484375 38.488281 100.757812 39.152344 C 101.035156 39.816406 101.242188 40.5 101.382812 41.203125 C 101.527344 41.90625 101.597656 42.617188 101.601562 43.335938 C 101.601562 43.820312 101.507812 44.285156 101.324219 44.730469 C 101.136719 45.179688 100.875 45.574219 100.53125 45.914062 C 100.191406 46.257812 99.796875 46.519531 99.347656 46.707031 C 98.902344 46.890625 98.4375 46.984375 97.953125 46.984375 C 97.46875 46.984375 97.003906 46.890625 96.558594 46.707031 C 96.109375 46.519531 95.714844 46.257812 95.375 45.914062 C 95.03125 45.574219 94.769531 45.179688 94.582031 44.730469 C 94.398438 44.285156 94.304688 43.820312 94.304688 43.335938 C 94.304688 42.851562 94.214844 42.386719 94.027344 41.941406 C 93.84375 41.492188 93.578125 41.097656 93.238281 40.757812 C 92.894531 40.414062 92.5 40.148438 92.054688 39.964844 C 91.609375 39.78125 91.140625 39.6875 90.660156 39.6875 L 85.1875 39.6875 C 84.828125 39.6875 84.472656 39.722656 84.121094 39.792969 C 83.769531 39.863281 83.425781 39.964844 83.09375 40.105469 C 82.761719 40.242188 82.449219 40.410156 82.148438 40.609375 C 81.851562 40.808594 81.574219 41.035156 81.320312 41.289062 C 81.066406 41.542969 80.839844 41.820312 80.640625 42.121094 C 80.441406 42.417969 80.273438 42.734375 80.132812 43.066406 C 79.996094 43.398438 79.894531 43.738281 79.824219 44.09375 C 79.753906 44.445312 79.71875 44.800781 79.71875 45.160156 C 79.71875 45.519531 79.753906 45.875 79.824219 46.226562 C 79.894531 46.578125 79.996094 46.921875 80.132812 47.253906 C 80.273438 47.585938 80.441406 47.902344 80.640625 48.199219 C 80.839844 48.5 81.066406 48.773438 81.320312 49.027344 C 81.574219 49.28125 81.851562 49.507812 82.148438 49.710938 C 82.449219 49.910156 82.761719 50.078125 83.09375 50.214844 C 83.425781 50.351562 83.769531 50.457031 84.121094 50.527344 C 84.472656 50.597656 84.828125 50.632812 85.1875 50.632812 L 88.835938 50.632812 C 89.671875 50.632812 90.503906 50.714844 91.324219 50.875 C 92.148438 51.039062 92.945312 51.28125 93.71875 51.601562 C 94.496094 51.925781 95.230469 52.316406 95.925781 52.78125 C 96.625 53.25 97.269531 53.777344 97.863281 54.371094 C 98.453125 54.964844 98.984375 55.609375 99.449219 56.304688 C 99.914062 57.003906 100.308594 57.738281 100.628906 58.511719 C 100.949219 59.289062 101.191406 60.085938 101.355469 60.90625 C 101.519531 61.730469 101.601562 62.5625 101.601562 63.398438 C 101.601562 64.238281 101.519531 65.066406 101.355469 65.890625 C 101.191406 66.710938 100.949219 67.511719 100.628906 68.285156 C 100.308594 69.058594 99.914062 69.796875 99.449219 70.492188 C 98.984375 71.1875 98.453125 71.835938 97.863281 72.425781 C 97.269531 73.019531 96.625 73.550781 95.925781 74.015625 C 95.230469 74.480469 94.496094 74.875 93.71875 75.195312 C 92.945312 75.515625 92.148438 75.757812 91.324219 75.921875 C 90.503906 76.085938 89.671875 76.167969 88.835938 76.167969 L 83.363281 76.167969 C 82.648438 76.164062 81.9375 76.09375 81.230469 75.953125 C 80.527344 75.808594 79.84375 75.601562 79.183594 75.324219 C 78.519531 75.050781 77.890625 74.710938 77.292969 74.3125 C 76.695312 73.914062 76.144531 73.460938 75.636719 72.953125 C 75.128906 72.445312 74.675781 71.890625 74.277344 71.296875 C 73.878906 70.699219 73.539062 70.070312 73.265625 69.40625 C 72.988281 68.742188 72.78125 68.058594 72.640625 67.355469 C 72.496094 66.652344 72.425781 65.941406 72.421875 65.222656 C 72.421875 64.738281 72.515625 64.273438 72.699219 63.828125 C 72.886719 63.378906 73.148438 62.984375 73.492188 62.644531 C 73.832031 62.300781 74.226562 62.039062 74.675781 61.851562 C 75.121094 61.667969 75.585938 61.574219 76.070312 61.574219 C 76.554688 61.574219 77.019531 61.667969 77.464844 61.851562 C 77.914062 62.039062 78.308594 62.300781 78.648438 62.644531 C 78.992188 62.984375 79.253906 63.378906 79.441406 63.828125 C 79.625 64.273438 79.71875 64.738281 79.71875 65.222656 C 79.71875 65.707031 79.808594 66.171875 79.996094 66.617188 C 80.179688 67.066406 80.445312 67.460938 80.785156 67.800781 C 81.128906 68.144531 81.523438 68.40625 81.96875 68.59375 C 82.414062 68.777344 82.882812 68.871094 83.363281 68.871094 L 88.835938 68.871094 C 89.195312 68.871094 89.550781 68.835938 89.902344 68.765625 C 90.253906 68.695312 90.597656 68.59375 90.929688 68.453125 C 91.261719 68.316406 91.574219 68.148438 91.875 67.949219 C 92.171875 67.75 92.449219 67.523438 92.703125 67.269531 C 92.957031 67.015625 93.183594 66.738281 93.382812 66.4375 C 93.582031 66.140625 93.753906 65.824219 93.890625 65.492188 C 94.027344 65.160156 94.128906 64.820312 94.199219 64.464844 C 94.269531 64.113281 94.304688 63.757812 94.304688 63.398438 C 94.304688 63.039062 94.269531 62.683594 94.199219 62.332031 C 94.128906 61.980469 94.027344 61.636719 93.890625 61.304688 C 93.753906 60.972656 93.582031 60.65625 93.382812 60.359375 C 93.183594 60.058594 92.957031 59.785156 92.703125 59.53125 C 92.449219 59.277344 92.171875 59.050781 91.875 58.847656 C 91.574219 58.648438 91.261719 58.480469 90.929688 58.34375 C 90.597656 58.207031 90.253906 58.101562 89.902344 58.03125 C 89.550781 57.960938 89.195312 57.925781 88.835938 57.925781 Z M 125.304688 57.925781 L 121.660156 57.925781 C 120.820312 57.925781 119.992188 57.84375 119.167969 57.683594 C 118.347656 57.519531 117.546875 57.277344 116.773438 56.957031 C 116 56.632812 115.265625 56.242188 114.566406 55.773438 C 113.871094 55.308594 113.226562 54.78125 112.632812 54.1875 C 112.039062 53.59375 111.511719 52.949219 111.046875 52.253906 C 110.578125 51.554688 110.1875 50.820312 109.867188 50.046875 C 109.546875 49.269531 109.304688 48.472656 109.140625 47.648438 C 108.976562 46.828125 108.894531 45.996094 108.894531 45.160156 C 108.894531 44.320312 108.976562 43.492188 109.140625 42.667969 C 109.304688 41.847656 109.546875 41.046875 109.867188 40.273438 C 110.1875 39.5 110.578125 38.761719 111.046875 38.066406 C 111.511719 37.367188 112.039062 36.722656 112.632812 36.132812 C 113.226562 35.539062 113.871094 35.007812 114.566406 34.542969 C 115.265625 34.078125 116 33.683594 116.773438 33.363281 C 117.546875 33.042969 118.347656 32.800781 119.167969 32.636719 C 119.992188 32.472656 120.820312 32.390625 121.660156 32.390625 L 127.128906 32.390625 C 127.847656 32.394531 128.558594 32.464844 129.261719 32.605469 C 129.964844 32.75 130.648438 32.957031 131.3125 33.234375 C 131.976562 33.507812 132.605469 33.847656 133.199219 34.246094 C 133.796875 34.644531 134.347656 35.097656 134.855469 35.605469 C 135.363281 36.113281 135.816406 36.667969 136.21875 37.261719 C 136.617188 37.859375 136.953125 38.488281 137.230469 39.152344 C 137.503906 39.816406 137.714844 40.5 137.855469 41.203125 C 137.996094 41.90625 138.070312 42.617188 138.070312 43.335938 C 138.070312 43.820312 137.980469 44.285156 137.792969 44.730469 C 137.609375 45.179688 137.34375 45.574219 137.003906 45.914062 C 136.660156 46.257812 136.265625 46.519531 135.820312 46.707031 C 135.371094 46.890625 134.90625 46.984375 134.425781 46.984375 C 133.941406 46.984375 133.476562 46.890625 133.027344 46.707031 C 132.582031 46.519531 132.1875 46.257812 131.84375 45.914062 C 131.503906 45.574219 131.238281 45.179688 131.054688 44.730469 C 130.871094 44.285156 130.777344 43.820312 130.777344 43.335938 C 130.777344 42.851562 130.683594 42.386719 130.5 41.941406 C 130.3125 41.492188 130.050781 41.097656 129.707031 40.757812 C 129.367188 40.414062 128.972656 40.148438 128.527344 39.964844 C 128.078125 39.78125 127.613281 39.6875 127.128906 39.6875 L 121.660156 39.6875 C 121.300781 39.6875 120.945312 39.722656 120.59375 39.792969 C 120.238281 39.863281 119.898438 39.964844 119.566406 40.105469 C 119.234375 40.242188 118.917969 40.410156 118.621094 40.609375 C 118.320312 40.808594 118.042969 41.035156 117.789062 41.289062 C 117.535156 41.542969 117.308594 41.820312 117.109375 42.121094 C 116.910156 42.417969 116.742188 42.734375 116.605469 43.066406 C 116.46875 43.398438 116.363281 43.738281 116.292969 44.09375 C 116.222656 44.445312 116.1875 44.800781 116.1875 45.160156 C 116.1875 45.519531 116.222656 45.875 116.292969 46.226562 C 116.363281 46.578125 116.46875 46.921875 116.605469 47.253906 C 116.742188 47.585938 116.910156 47.902344 117.109375 48.199219 C 117.308594 48.5 117.535156 48.773438 117.789062 49.027344 C 118.042969 49.28125 118.320312 49.507812 118.621094 49.710938 C 118.917969 49.910156 119.234375 50.078125 119.566406 50.214844 C 119.898438 50.351562 120.238281 50.457031 120.59375 50.527344 C 120.945312 50.597656 121.300781 50.632812 121.660156 50.632812 L 125.304688 50.632812 C 126.144531 50.632812 126.972656 50.714844 127.796875 50.875 C 128.617188 51.039062 129.417969 51.28125 130.191406 51.601562 C 130.964844 51.925781 131.699219 52.316406 132.398438 52.78125 C 133.09375 53.25 133.738281 53.777344 134.332031 54.371094 C 134.925781 54.964844 135.453125 55.609375 135.917969 56.304688 C 136.386719 57.003906 136.777344 57.738281 137.097656 58.511719 C 137.421875 59.289062 137.664062 60.085938 137.824219 60.90625 C 137.988281 61.730469 138.070312 62.5625 138.070312 63.398438 C 138.070312 64.238281 137.988281 65.066406 137.824219 65.890625 C 137.664062 66.710938 137.421875 67.511719 137.097656 68.285156 C 136.777344 69.058594 136.386719 69.796875 135.917969 70.492188 C 135.453125 71.1875 134.925781 71.835938 134.332031 72.425781 C 133.738281 73.019531 133.09375 73.550781 132.398438 74.015625 C 131.699219 74.480469 130.964844 74.875 130.191406 75.195312 C 129.417969 75.515625 128.617188 75.757812 127.796875 75.921875 C 126.972656 76.085938 126.144531 76.167969 125.304688 76.167969 L 119.835938 76.167969 C 119.117188 76.164062 118.40625 76.09375 117.703125 75.953125 C 117 75.808594 116.316406 75.601562 115.652344 75.324219 C 114.992188 75.050781 114.359375 74.710938 113.765625 74.3125 C 113.167969 73.914062 112.617188 73.460938 112.109375 72.953125 C 111.601562 72.445312 111.148438 71.890625 110.75 71.296875 C 110.347656 70.699219 110.011719 70.070312 109.734375 69.40625 C 109.460938 68.742188 109.25 68.058594 109.109375 67.355469 C 108.96875 66.652344 108.894531 65.941406 108.894531 65.222656 C 108.894531 64.738281 108.988281 64.273438 109.171875 63.828125 C 109.355469 63.378906 109.621094 62.984375 109.960938 62.644531 C 110.304688 62.300781 110.699219 62.039062 111.144531 61.851562 C 111.59375 61.667969 112.058594 61.574219 112.542969 61.574219 C 113.023438 61.574219 113.492188 61.667969 113.9375 61.851562 C 114.382812 62.039062 114.777344 62.300781 115.121094 62.644531 C 115.460938 62.984375 115.726562 63.378906 115.910156 63.828125 C 116.097656 64.273438 116.1875 64.738281 116.1875 65.222656 C 116.1875 65.707031 116.28125 66.171875 116.464844 66.617188 C 116.652344 67.066406 116.914062 67.460938 117.257812 67.800781 C 117.597656 68.144531 117.992188 68.40625 118.441406 68.59375 C 118.886719 68.777344 119.351562 68.871094 119.835938 68.871094 L 125.304688 68.871094 C 125.664062 68.871094 126.019531 68.835938 126.375 68.765625 C 126.726562 68.695312 127.066406 68.59375 127.398438 68.453125 C 127.730469 68.316406 128.046875 68.148438 128.34375 67.949219 C 128.644531 67.75 128.921875 67.523438 129.175781 67.269531 C 129.429688 67.015625 129.65625 66.738281 129.855469 66.4375 C 130.054688 66.140625 130.222656 65.824219 130.359375 65.492188 C 130.496094 65.160156 130.601562 64.820312 130.671875 64.464844 C 130.742188 64.113281 130.777344 63.757812 130.777344 63.398438 C 130.777344 63.039062 130.742188 62.683594 130.671875 62.332031 C 130.601562 61.980469 130.496094 61.636719 130.359375 61.304688 C 130.222656 60.972656 130.054688 60.65625 129.855469 60.359375 C 129.65625 60.058594 129.429688 59.785156 129.175781 59.53125 C 128.921875 59.277344 128.644531 59.050781 128.34375 58.847656 C 128.046875 58.648438 127.730469 58.480469 127.398438 58.34375 C 127.066406 58.207031 126.726562 58.101562 126.375 58.03125 C 126.019531 57.960938 125.664062 57.925781 125.304688 57.925781 Z M 156.304688 50.632812 L 156.304688 30.238281 L 180.339844 54.277344 L 159.953125 54.277344 C 159.46875 54.277344 159.003906 54.1875 158.558594 54 C 158.109375 53.816406 157.714844 53.554688 157.375 53.210938 C 157.03125 52.867188 156.769531 52.472656 156.585938 52.027344 C 156.398438 51.582031 156.304688 51.113281 156.304688 50.632812 Z M 200.070312 200.195312 L 192.777344 200.195312 L 192.777344 57.925781 C 192.769531 56.921875 192.417969 56.058594 191.71875 55.335938 L 155.25 18.859375 C 154.527344 18.160156 153.664062 17.808594 152.660156 17.800781 L 39.597656 17.800781 L 39.597656 10.503906 L 200.070312 10.503906 Z M 200.070312 200.195312 " fill-opacity="1" fill-rule="nonzero"/></g></svg>