<svg xmlns="http://www.w3.org/2000/svg" xmlns:xlink="http://www.w3.org/1999/xlink" width="300" zoomAndPan="magnify" viewBox="0 0 224.87999 112.499997" height="150" preserveAspectRatio="xMidYMid meet" version="1.0"><defs><clipPath id="19b61a92df"><path d="M 9.144531 85 L 15 85 L 15 110.921875 L 9.144531 110.921875 Z M 9.144531 85 " clip-rule="nonzero"/></clipPath><clipPath id="b0963ab322"><path d="M 88 1.160156 L 111 1.160156 L 111 29 L 88 29 Z M 88 1.160156 " clip-rule="nonzero"/></clipPath><clipPath id="e77945a04a"><path d="M 114 1.160156 L 136 1.160156 L 136 33 L 114 33 Z M 114 1.160156 " clip-rule="nonzero"/></clipPath><clipPath id="a71a910276"><path d="M 171 55 L 215.835938 55 L 215.835938 88 L 171 88 Z M 171 55 " clip-rule="nonzero"/></clipPath></defs><path fill="#3858e9" d="M 110.589844 75.960938 C 107.835938 76.746094 106.226562 79.628906 107.011719 82.390625 C 107.796875 85.152344 110.675781 86.757812 113.433594 85.972656 C 116.191406 85.191406 117.796875 82.304688 117.015625 79.546875 C 116.230469 76.785156 113.347656 75.175781 110.589844 75.960938 " fill-opacity="1" fill-rule="nonzero"/><path fill="#3858e9" d="M 110.589844 75.960938 C 107.835938 76.746094 106.226562 79.628906 107.011719 82.390625 C 107.796875 85.152344 110.675781 86.757812 113.433594 85.972656 C 116.191406 85.191406 117.796875 82.304688 117.015625 79.546875 C 116.230469 76.785156 113.347656 75.175781 110.589844 75.960938 " fill-opacity="1" fill-rule="nonzero"/><path fill="#3858e9" d="M 119.394531 78.867188 C 120.261719 81.921875 119.152344 85.070312 116.832031 86.945312 L 184.410156 60.382812 L 113.625 73.457031 C 116.304688 74.039062 118.59375 76.039062 119.394531 78.867188 " fill-opacity="1" fill-rule="nonzero"/><g clip-path="url(#19b61a92df)"><path fill="#3858e9" d="M 10.90625 85.503906 L 14.335938 85.503906 C 11.425781 93.496094 9.632812 102.019531 9.140625 110.894531 C 9.046875 109.09375 9 107.285156 9 105.457031 C 9 98.636719 9.65625 91.960938 10.90625 85.503906 " fill-opacity="1" fill-rule="nonzero"/></g><path fill="#3858e9" d="M 29.828125 58.757812 C 24.203125 65.433594 19.546875 72.953125 16.074219 81.105469 L 11.859375 81.105469 C 13.972656 72.253906 17.214844 63.835938 21.429688 56.023438 L 29.828125 58.757812 " fill-opacity="1" fill-rule="nonzero"/><path fill="#3858e9" d="M 50.328125 40.863281 C 43.96875 44.890625 38.152344 49.703125 33.019531 55.167969 L 23.644531 52.117188 C 27.902344 44.96875 32.992188 38.375 38.78125 32.46875 L 50.328125 40.863281 " fill-opacity="1" fill-rule="nonzero"/><path fill="#3858e9" d="M 71.765625 31.03125 C 65.683594 32.878906 59.886719 35.371094 54.441406 38.417969 L 41.96875 29.347656 C 47.589844 24.074219 53.796875 19.417969 60.480469 15.484375 L 71.765625 31.03125 " fill-opacity="1" fill-rule="nonzero"/><path fill="#3858e9" d="M 91.960938 27.378906 C 86.589844 27.714844 81.355469 28.53125 76.289062 29.785156 L 64.339844 13.324219 C 70.769531 9.902344 77.59375 7.136719 84.734375 5.113281 L 91.960938 27.378906 " fill-opacity="1" fill-rule="nonzero"/><g clip-path="url(#b0963ab322)"><path fill="#3858e9" d="M 110.226562 1.222656 L 110.226562 28.09375 C 106.101562 27.507812 101.886719 27.199219 97.597656 27.199219 C 97.238281 27.199219 96.878906 27.203125 96.519531 27.207031 L 88.992188 4.003906 C 95.828125 2.375 102.933594 1.421875 110.226562 1.222656 " fill-opacity="1" fill-rule="nonzero"/></g><g clip-path="url(#e77945a04a)"><path fill="#3858e9" d="M 135.957031 3.683594 L 126.730469 32.109375 C 122.8125 30.742188 118.765625 29.644531 114.617188 28.839844 L 114.617188 1.191406 C 121.941406 1.292969 129.078125 2.144531 135.957031 3.683594 " fill-opacity="1" fill-rule="nonzero"/></g><path fill="#3858e9" d="M 160.914062 12.753906 L 141.839844 39.035156 C 138.320312 37 134.648438 35.203125 130.84375 33.660156 L 140.234375 4.734375 C 147.472656 6.679688 154.394531 9.378906 160.914062 12.753906 " fill-opacity="1" fill-rule="nonzero"/><path fill="#3858e9" d="M 183.71875 28.734375 L 155.808594 49.03125 C 152.597656 46.226562 149.1875 43.65625 145.597656 41.332031 L 164.804688 14.871094 C 171.632812 18.777344 177.976562 23.433594 183.71875 28.734375 " fill-opacity="1" fill-rule="nonzero"/><path fill="#3858e9" d="M 202.457031 51.707031 L 168.527344 62.742188 C 165.675781 58.933594 162.523438 55.363281 159.113281 52.066406 L 186.9375 31.832031 C 192.875 37.789062 198.09375 44.460938 202.457031 51.707031 " fill-opacity="1" fill-rule="nonzero"/><g clip-path="url(#a71a910276)"><path fill="#3858e9" d="M 215.84375 87.734375 L 181.632812 87.734375 C 181.382812 86.984375 181.121094 86.242188 180.855469 85.503906 C 180.3125 84.019531 179.734375 82.550781 179.113281 81.105469 C 176.925781 75.972656 174.269531 71.085938 171.191406 66.503906 L 204.691406 55.609375 C 209.011719 63.539062 212.332031 72.097656 214.484375 81.105469 C 214.589844 81.542969 214.695312 81.980469 214.789062 82.421875 C 215.1875 84.175781 215.535156 85.945312 215.84375 87.734375 " fill-opacity="1" fill-rule="nonzero"/></g></svg>