<svg xmlns="http://www.w3.org/2000/svg" xmlns:xlink="http://www.w3.org/1999/xlink" width="300" zoomAndPan="magnify" viewBox="0 0 224.87999 225" height="300" preserveAspectRatio="xMidYMid meet" version="1.0"><defs><clipPath id="c2e272f3da"><path d="M 3.296875 14.667969 L 221.324219 14.667969 L 221.324219 210.316406 L 3.296875 210.316406 Z M 3.296875 14.667969 " clip-rule="nonzero"/></clipPath></defs><g clip-path="url(#c2e272f3da)"><path fill="#3858e9" d="M 10.660156 14.71875 L 156.960938 14.71875 C 161.066406 14.71875 164.425781 18.082031 164.425781 22.195312 L 164.425781 37.347656 L 177.148438 37.347656 C 180.378906 28.3125 188.945312 22.246094 198.574219 22.246094 C 211.136719 22.246094 221.324219 32.449219 221.324219 45.035156 C 221.324219 57.617188 211.136719 67.820312 198.574219 67.820312 C 188.945312 67.820312 180.378906 61.757812 177.148438 52.71875 L 164.425781 52.71875 L 164.425781 67.871094 C 164.425781 71.984375 161.066406 75.351562 156.960938 75.351562 L 10.660156 75.351562 C 6.550781 75.351562 3.191406 71.984375 3.191406 67.871094 L 3.191406 22.195312 C 3.191406 18.082031 6.550781 14.71875 10.660156 14.71875 Z M 168.03125 91.304688 L 217.75 112.644531 L 217.75 152.90625 C 217.75 180.933594 197.390625 205.140625 169.839844 209.949219 L 168.03125 210.265625 L 166.222656 209.949219 C 138.671875 205.140625 118.3125 180.933594 118.3125 152.90625 L 118.3125 112.644531 Z M 168.03125 109.582031 L 135.097656 123.71875 L 135.097656 152.90625 C 135.097656 172.371094 148.988281 189.347656 168.03125 193.199219 C 187.074219 189.347656 200.964844 172.371094 200.964844 152.90625 L 200.964844 123.71875 Z M 130.125 118.078125 C 128.769531 118.65625 127.957031 119.976562 127.953125 121.367188 L 127.945312 152.90625 C 127.945312 176.035156 144.691406 196.136719 167.390625 200.347656 C 167.859375 200.433594 168.328125 200.421875 168.773438 200.328125 C 191.421875 196.078125 208.117188 176 208.117188 152.90625 L 208.117188 121.367188 C 208.117188 119.800781 207.109375 118.46875 205.710938 117.980469 L 169.429688 102.410156 C 168.5 102.011719 167.496094 102.042969 166.632812 102.410156 Z M 146.457031 154.480469 L 158.453125 166.496094 C 160.546875 168.589844 163.9375 168.589844 166.03125 166.496094 C 176.3125 156.199219 179.390625 152.976562 189.621094 142.628906 C 191.703125 140.53125 191.691406 137.144531 189.597656 135.058594 C 187.507812 132.976562 184.125 132.984375 182.042969 135.082031 L 162.234375 155.101562 L 154.035156 146.890625 C 151.941406 144.792969 148.550781 144.792969 146.457031 146.890625 C 144.363281 148.984375 144.363281 152.382812 146.457031 154.480469 Z M 184.851562 37.59375 C 186.179688 38.117188 187.128906 39.417969 187.128906 40.929688 L 187.128906 49.136719 C 187.128906 50.648438 186.179688 51.949219 184.851562 52.472656 C 187.578125 57.507812 192.824219 60.660156 198.574219 60.660156 C 207.191406 60.660156 214.171875 53.664062 214.171875 45.035156 C 214.171875 36.402344 207.191406 29.410156 198.574219 29.410156 C 192.824219 29.410156 187.578125 32.558594 184.851562 37.59375 Z M 133.769531 34.425781 L 133.769531 36.386719 L 132.382812 35 C 130.988281 33.601562 128.722656 33.601562 127.328125 35 C 125.933594 36.398438 125.933594 38.667969 127.328125 40.066406 L 128.714844 41.453125 L 126.753906 41.453125 C 124.78125 41.453125 123.179688 43.054688 123.179688 45.035156 C 123.179688 47.011719 124.78125 48.617188 126.753906 48.617188 L 128.714844 48.617188 L 127.328125 50.003906 C 125.933594 51.402344 125.933594 53.667969 127.328125 55.066406 C 128.722656 56.464844 130.988281 56.464844 132.382812 55.066406 L 133.769531 53.679688 L 133.769531 55.640625 C 133.769531 57.621094 135.371094 59.222656 137.34375 59.222656 C 139.320312 59.222656 140.921875 57.621094 140.921875 55.640625 L 140.921875 53.679688 L 142.304688 55.066406 C 143.703125 56.464844 145.964844 56.464844 147.363281 55.066406 C 148.757812 53.667969 148.757812 51.402344 147.363281 50.003906 L 145.976562 48.617188 L 147.9375 48.617188 C 149.910156 48.617188 151.511719 47.011719 151.511719 45.035156 C 151.511719 43.054688 149.910156 41.453125 147.9375 41.453125 L 145.976562 41.453125 L 147.363281 40.066406 C 148.757812 38.667969 148.757812 36.398438 147.363281 35 C 145.964844 33.601562 143.703125 33.601562 142.304688 35 L 140.921875 36.386719 L 140.921875 34.425781 C 140.921875 32.449219 139.320312 30.84375 137.34375 30.84375 C 135.371094 30.84375 133.769531 32.449219 133.769531 34.425781 Z M 40.289062 50.003906 L 38.90625 48.617188 L 40.863281 48.617188 C 42.839844 48.617188 44.441406 47.011719 44.441406 45.035156 C 44.441406 43.054688 42.839844 41.453125 40.863281 41.453125 L 38.90625 41.453125 L 40.289062 40.066406 C 41.6875 38.667969 41.6875 36.398438 40.289062 35 C 38.894531 33.601562 36.628906 33.601562 35.234375 35 L 33.847656 36.386719 L 33.847656 34.425781 C 33.847656 32.449219 32.25 30.84375 30.273438 30.84375 C 28.296875 30.84375 26.699219 32.449219 26.699219 34.425781 L 26.699219 36.386719 L 25.3125 35 C 23.917969 33.601562 21.652344 33.601562 20.257812 35 C 18.859375 36.398438 18.859375 38.667969 20.257812 40.066406 L 21.640625 41.453125 L 19.683594 41.453125 C 17.707031 41.453125 16.105469 43.054688 16.105469 45.035156 C 16.105469 47.011719 17.707031 48.617188 19.683594 48.617188 L 21.640625 48.617188 L 20.257812 50.003906 C 18.859375 51.402344 18.859375 53.667969 20.257812 55.066406 C 21.652344 56.464844 23.917969 56.464844 25.3125 55.066406 L 26.699219 53.679688 L 26.699219 55.640625 C 26.699219 57.621094 28.296875 59.222656 30.273438 59.222656 C 32.25 59.222656 33.847656 57.621094 33.847656 55.640625 L 33.847656 53.679688 L 35.234375 55.066406 C 36.628906 56.464844 38.894531 56.464844 40.289062 55.066406 C 41.6875 53.667969 41.6875 51.402344 40.289062 50.003906 Z M 75.980469 50.003906 L 74.597656 48.617188 L 76.554688 48.617188 C 78.527344 48.617188 80.128906 47.011719 80.128906 45.035156 C 80.128906 43.054688 78.527344 41.453125 76.554688 41.453125 L 74.597656 41.453125 L 75.980469 40.066406 C 77.378906 38.667969 77.378906 36.398438 75.980469 35 C 74.585938 33.601562 72.320312 33.601562 70.925781 35 L 69.539062 36.386719 L 69.539062 34.425781 C 69.539062 32.449219 67.9375 30.84375 65.964844 30.84375 C 63.988281 30.84375 62.386719 32.449219 62.386719 34.425781 L 62.386719 36.386719 L 61.003906 35 C 59.605469 33.601562 57.34375 33.601562 55.945312 35 C 54.550781 36.398438 54.550781 38.667969 55.945312 40.066406 L 57.332031 41.453125 L 55.375 41.453125 C 53.398438 41.453125 51.796875 43.054688 51.796875 45.035156 C 51.796875 47.011719 53.398438 48.617188 55.375 48.617188 L 57.332031 48.617188 L 55.945312 50.003906 C 54.550781 51.402344 54.550781 53.667969 55.945312 55.066406 C 57.34375 56.464844 59.605469 56.464844 61.003906 55.066406 L 62.386719 53.679688 L 62.386719 55.640625 C 62.386719 57.621094 63.988281 59.222656 65.964844 59.222656 C 67.9375 59.222656 69.539062 57.621094 69.539062 55.640625 L 69.539062 53.679688 L 70.925781 55.066406 C 72.320312 56.464844 74.585938 56.464844 75.980469 55.066406 C 77.378906 53.667969 77.378906 51.402344 75.980469 50.003906 Z M 111.671875 50.003906 L 110.285156 48.617188 L 112.246094 48.617188 C 114.21875 48.617188 115.820312 47.011719 115.820312 45.035156 C 115.820312 43.054688 114.21875 41.453125 112.246094 41.453125 L 110.285156 41.453125 L 111.671875 40.066406 C 113.066406 38.667969 113.066406 36.398438 111.671875 35 C 110.273438 33.601562 108.011719 33.601562 106.617188 35 L 105.230469 36.386719 L 105.230469 34.425781 C 105.230469 32.449219 103.628906 30.84375 101.65625 30.84375 C 99.679688 30.84375 98.078125 32.449219 98.078125 34.425781 L 98.078125 36.386719 L 96.695312 35 C 95.296875 33.601562 93.035156 33.601562 91.636719 35 C 90.242188 36.398438 90.242188 38.667969 91.636719 40.066406 L 93.023438 41.453125 L 91.0625 41.453125 C 89.089844 41.453125 87.488281 43.054688 87.488281 45.035156 C 87.488281 47.011719 89.089844 48.617188 91.0625 48.617188 L 93.023438 48.617188 L 91.636719 50.003906 C 90.242188 51.402344 90.242188 53.667969 91.636719 55.066406 C 93.035156 56.464844 95.296875 56.464844 96.695312 55.066406 L 98.078125 53.679688 L 98.078125 55.640625 C 98.078125 57.621094 99.679688 59.222656 101.65625 59.222656 C 103.628906 59.222656 105.230469 57.621094 105.230469 55.640625 L 105.230469 53.679688 L 106.617188 55.066406 C 108.011719 56.464844 110.277344 56.464844 111.671875 55.066406 C 113.066406 53.667969 113.066406 51.402344 111.671875 50.003906 Z M 111.671875 50.003906 " fill-opacity="1" fill-rule="evenodd"/></g></svg>