<svg xmlns="http://www.w3.org/2000/svg" xmlns:xlink="http://www.w3.org/1999/xlink" width="300" zoomAndPan="magnify" viewBox="0 0 224.87999 225" height="300" preserveAspectRatio="xMidYMid meet" version="1.0"><defs><clipPath id="04d9bd6b25"><path d="M 141 137 L 218.355469 137 L 218.355469 214.421875 L 141 214.421875 Z M 141 137 " clip-rule="nonzero"/></clipPath><clipPath id="44cafb644d"><path d="M 6.21875 10.527344 L 187 10.527344 L 187 176 L 6.21875 176 Z M 6.21875 10.527344 " clip-rule="nonzero"/></clipPath></defs><path fill="#3858e9" d="M 191.296875 175.847656 C 191.296875 176.617188 191.222656 177.382812 191.070312 178.140625 C 190.921875 178.898438 190.699219 179.632812 190.402344 180.347656 C 190.105469 181.0625 189.746094 181.738281 189.316406 182.382812 C 188.886719 183.023438 188.402344 183.617188 187.855469 184.164062 C 187.308594 184.710938 186.714844 185.199219 186.074219 185.628906 C 185.433594 186.058594 184.753906 186.417969 184.042969 186.714844 C 183.332031 187.011719 182.59375 187.234375 181.839844 187.382812 C 181.082031 187.535156 180.316406 187.609375 179.546875 187.609375 C 178.773438 187.609375 178.011719 187.535156 177.253906 187.382812 C 176.496094 187.234375 175.761719 187.011719 175.050781 186.714844 C 174.335938 186.417969 173.660156 186.058594 173.015625 185.628906 C 172.375 185.199219 171.78125 184.710938 171.238281 184.164062 C 170.691406 183.617188 170.203125 183.023438 169.773438 182.382812 C 169.347656 181.738281 168.984375 181.0625 168.6875 180.347656 C 168.394531 179.632812 168.171875 178.898438 168.019531 178.140625 C 167.871094 177.382812 167.792969 176.617188 167.792969 175.847656 C 167.792969 175.074219 167.871094 174.308594 168.019531 173.550781 C 168.171875 172.792969 168.394531 172.058594 168.6875 171.34375 C 168.984375 170.628906 169.347656 169.953125 169.773438 169.308594 C 170.203125 168.667969 170.691406 168.074219 171.238281 167.527344 C 171.78125 166.980469 172.375 166.492188 173.015625 166.0625 C 173.660156 165.632812 174.335938 165.273438 175.050781 164.976562 C 175.761719 164.679688 176.496094 164.457031 177.253906 164.308594 C 178.011719 164.15625 178.773438 164.082031 179.546875 164.082031 C 180.316406 164.082031 181.082031 164.15625 181.839844 164.308594 C 182.59375 164.457031 183.332031 164.679688 184.042969 164.976562 C 184.753906 165.273438 185.433594 165.632812 186.074219 166.0625 C 186.714844 166.492188 187.308594 166.980469 187.855469 167.527344 C 188.402344 168.074219 188.886719 168.667969 189.316406 169.308594 C 189.746094 169.953125 190.105469 170.628906 190.402344 171.34375 C 190.699219 172.058594 190.921875 172.792969 191.070312 173.550781 C 191.222656 174.308594 191.296875 175.074219 191.296875 175.847656 Z M 191.296875 175.847656 " fill-opacity="1" fill-rule="nonzero"/><g clip-path="url(#04d9bd6b25)"><path fill="#3858e9" d="M 179.558594 137.292969 C 158.28125 137.292969 141.042969 154.550781 141.042969 175.851562 C 141.042969 197.140625 158.28125 214.398438 179.558594 214.398438 C 200.824219 214.398438 218.0625 197.140625 218.0625 175.851562 C 218.0625 154.550781 200.824219 137.292969 179.558594 137.292969 Z M 200.539062 175.847656 C 200.539062 177.894531 200.226562 179.867188 199.699219 181.714844 L 204.101562 184.910156 C 204.847656 185.46875 205.066406 186.492188 204.597656 187.300781 L 201.996094 191.832031 C 201.515625 192.640625 200.523438 192.964844 199.667969 192.59375 L 194.707031 190.359375 C 191.996094 193.214844 188.476562 195.292969 184.539062 196.242188 L 183.964844 201.65625 C 183.871094 202.589844 183.09375 203.304688 182.164062 203.304688 L 176.941406 203.304688 C 176.011719 203.304688 175.21875 202.589844 175.128906 201.65625 L 174.554688 196.242188 C 170.617188 195.292969 167.113281 193.214844 164.382812 190.359375 L 159.421875 192.59375 C 158.585938 192.964844 157.578125 192.640625 157.113281 191.832031 L 154.507812 187.300781 C 154.042969 186.492188 154.257812 185.46875 155.003906 184.910156 L 159.40625 181.714844 C 158.863281 179.867188 158.570312 177.894531 158.570312 175.847656 C 158.570312 173.796875 158.863281 171.839844 159.40625 169.964844 L 155.003906 166.765625 C 154.257812 166.222656 154.042969 165.183594 154.507812 164.375 L 157.113281 159.859375 C 157.578125 159.050781 158.585938 158.726562 159.421875 159.097656 L 164.382812 161.316406 C 167.113281 158.476562 170.617188 156.398438 174.554688 155.433594 L 175.128906 150.035156 C 175.21875 149.101562 176.011719 148.386719 176.941406 148.386719 L 182.164062 148.386719 C 183.09375 148.386719 183.871094 149.101562 183.964844 150.035156 L 184.539062 155.433594 C 188.476562 156.398438 191.996094 158.476562 194.707031 161.316406 L 199.667969 159.097656 C 200.523438 158.726562 201.515625 159.050781 201.996094 159.859375 L 204.597656 164.375 C 205.066406 165.183594 204.847656 166.222656 204.101562 166.765625 L 199.699219 169.964844 C 200.226562 171.839844 200.539062 173.796875 200.539062 175.847656 Z M 200.539062 175.847656 " fill-opacity="1" fill-rule="nonzero"/></g><path fill="#3858e9" d="M 128.34375 62.445312 L 179.554688 62.445312 L 128.34375 18.914062 Z M 128.34375 62.445312 " fill-opacity="1" fill-rule="nonzero"/><g clip-path="url(#44cafb644d)"><path fill="#3858e9" d="M 134.140625 165.023438 L 17.332031 165.023438 L 17.332031 21.382812 L 111.089844 21.382812 L 111.089844 68.992188 C 111.089844 74.914062 115.890625 79.71875 121.804688 79.71875 L 175.441406 79.71875 L 175.441406 129.300781 C 176.796875 129.179688 178.167969 129.109375 179.554688 129.109375 C 181.828125 129.109375 184.0625 129.28125 186.25 129.597656 L 186.25 77.207031 C 186.25 72.613281 182.527344 68.886719 177.9375 68.886719 L 126.734375 68.886719 C 124.070312 68.886719 121.910156 66.722656 121.910156 64.058594 L 121.910156 18.871094 C 121.910156 14.273438 118.1875 10.546875 113.597656 10.546875 L 11.097656 10.546875 C 8.566406 10.546875 6.511719 12.605469 6.511719 15.140625 L 6.511719 171.261719 C 6.511719 173.800781 8.566406 175.855469 11.097656 175.855469 L 132.859375 175.855469 C 132.859375 172.125 133.3125 168.5 134.140625 165.023438 Z M 134.140625 165.023438 " fill-opacity="1" fill-rule="nonzero"/></g><path fill="#3858e9" d="M 101.90625 82.007812 C 101.90625 82.632812 101.847656 83.253906 101.722656 83.867188 C 101.601562 84.480469 101.421875 85.078125 101.183594 85.65625 C 100.941406 86.234375 100.648438 86.785156 100.300781 87.304688 C 99.953125 87.824219 99.558594 88.304688 99.117188 88.75 C 98.675781 89.191406 98.195312 89.585938 97.675781 89.933594 C 97.15625 90.28125 96.605469 90.574219 96.027344 90.816406 C 95.453125 91.054688 94.855469 91.234375 94.242188 91.355469 C 93.628906 91.480469 93.011719 91.539062 92.386719 91.539062 C 91.761719 91.539062 91.140625 91.480469 90.527344 91.355469 C 89.914062 91.234375 89.320312 91.054688 88.742188 90.816406 C 88.164062 90.574219 87.617188 90.28125 87.09375 89.933594 C 86.574219 89.585938 86.09375 89.191406 85.652344 88.75 C 85.210938 88.304688 84.816406 87.824219 84.46875 87.304688 C 84.121094 86.785156 83.828125 86.234375 83.589844 85.65625 C 83.347656 85.078125 83.167969 84.480469 83.046875 83.867188 C 82.925781 83.253906 82.863281 82.632812 82.863281 82.007812 C 82.863281 81.382812 82.925781 80.761719 83.046875 80.148438 C 83.167969 79.535156 83.347656 78.9375 83.589844 78.359375 C 83.828125 77.78125 84.121094 77.234375 84.46875 76.710938 C 84.816406 76.191406 85.210938 75.710938 85.652344 75.265625 C 86.09375 74.824219 86.574219 74.429688 87.09375 74.082031 C 87.617188 73.734375 88.164062 73.441406 88.742188 73.203125 C 89.320312 72.960938 89.914062 72.78125 90.527344 72.660156 C 91.140625 72.535156 91.761719 72.476562 92.386719 72.476562 C 93.011719 72.476562 93.628906 72.535156 94.242188 72.660156 C 94.855469 72.78125 95.453125 72.960938 96.027344 73.203125 C 96.605469 73.441406 97.15625 73.734375 97.675781 74.082031 C 98.195312 74.429688 98.675781 74.824219 99.117188 75.265625 C 99.558594 75.710938 99.953125 76.191406 100.300781 76.710938 C 100.648438 77.234375 100.941406 77.78125 101.183594 78.359375 C 101.421875 78.9375 101.601562 79.535156 101.722656 80.148438 C 101.847656 80.761719 101.90625 81.382812 101.90625 82.007812 Z M 101.90625 82.007812 " fill-opacity="1" fill-rule="nonzero"/><path fill="#3858e9" d="M 148.972656 140.574219 L 134.105469 112.566406 C 133.339844 111.125 131.5 110.664062 130.148438 111.574219 L 110.636719 124.671875 C 109.109375 125.691406 107.03125 124.960938 106.480469 123.210938 L 100.253906 103.371094 C 99.769531 101.832031 98.074219 101.039062 96.582031 101.65625 L 80.632812 108.257812 C 79.4375 108.75 78.0625 108.347656 77.324219 107.285156 L 66.875 92.269531 C 65.652344 90.511719 62.980469 90.765625 62.109375 92.722656 L 35.882812 151.574219 C 35.074219 153.394531 36.402344 155.449219 38.394531 155.449219 L 137.550781 155.449219 C 140.328125 149.746094 144.234375 144.695312 148.972656 140.574219 Z M 148.972656 140.574219 " fill-opacity="1" fill-rule="nonzero"/></svg>