<svg xmlns="http://www.w3.org/2000/svg" xmlns:xlink="http://www.w3.org/1999/xlink" width="300" zoomAndPan="magnify" viewBox="0 0 224.87999 225" height="300" preserveAspectRatio="xMidYMid meet" version="1.0"><defs><clipPath id="0edacc29f9"><path d="M 5.40625 102 L 117 102 L 117 213.695312 L 5.40625 213.695312 Z M 5.40625 102 " clip-rule="nonzero"/></clipPath><clipPath id="fe5d64176d"><path d="M 76 11.304688 L 219.640625 11.304688 L 219.640625 139 L 76 139 Z M 76 11.304688 " clip-rule="nonzero"/></clipPath></defs><g clip-path="url(#0edacc29f9)"><path fill="#3858e9" d="M 112.453125 146.21875 L 102.828125 146.21875 C 101.894531 142.925781 100.601562 139.785156 98.964844 136.855469 L 107.316406 128.5 C 108.867188 126.949219 108.867188 124.433594 107.316406 122.886719 L 96.09375 111.667969 C 94.542969 110.113281 92.027344 110.113281 90.480469 111.667969 L 82.125 120.019531 C 79.195312 118.382812 76.058594 117.089844 72.761719 116.15625 L 72.761719 106.53125 C 72.761719 104.339844 70.984375 102.5625 68.789062 102.5625 L 52.917969 102.5625 C 50.722656 102.5625 48.945312 104.339844 48.945312 106.53125 L 48.945312 116.15625 C 45.652344 117.089844 42.511719 118.382812 39.582031 120.019531 L 31.226562 111.667969 C 29.675781 110.113281 27.160156 110.113281 25.613281 111.667969 L 14.390625 122.886719 C 12.839844 124.441406 12.839844 126.953125 14.390625 128.5 L 22.742188 136.855469 C 21.105469 139.785156 19.816406 142.921875 18.878906 146.21875 L 9.253906 146.21875 C 7.0625 146.21875 5.285156 147.996094 5.285156 150.1875 L 5.285156 166.0625 C 5.285156 168.253906 7.0625 170.03125 9.253906 170.03125 L 18.878906 170.03125 C 19.8125 173.324219 21.105469 176.464844 22.742188 179.394531 L 14.390625 187.75 C 12.839844 189.300781 12.839844 191.8125 14.390625 193.363281 L 25.613281 204.582031 C 27.164062 206.136719 29.679688 206.136719 31.226562 204.582031 L 39.582031 196.230469 C 42.511719 197.867188 45.648438 199.160156 48.945312 200.09375 L 48.945312 209.71875 C 48.945312 211.910156 50.722656 213.6875 52.917969 213.6875 L 68.789062 213.6875 C 70.984375 213.6875 72.761719 211.910156 72.761719 209.71875 L 72.761719 200.09375 C 76.054688 199.160156 79.195312 197.867188 82.125 196.230469 L 90.480469 204.582031 C 92.03125 206.136719 94.546875 206.136719 96.09375 204.582031 L 107.316406 193.363281 C 108.867188 191.808594 108.867188 189.296875 107.316406 187.75 L 98.964844 179.394531 C 100.601562 176.464844 101.890625 173.328125 102.828125 170.03125 L 112.453125 170.03125 C 114.644531 170.03125 116.421875 168.253906 116.421875 166.0625 L 116.421875 150.1875 C 116.421875 147.996094 114.644531 146.21875 112.453125 146.21875 Z M 37.046875 158.125 C 37.046875 160.316406 35.269531 162.09375 33.074219 162.09375 C 30.878906 162.09375 29.105469 160.320312 29.105469 158.125 C 29.105469 149.636719 32.410156 141.386719 38.175781 135.503906 C 39.703125 133.941406 42.214844 133.90625 43.789062 135.449219 C 45.355469 136.980469 45.378906 139.496094 43.84375 141.0625 C 39.585938 145.410156 37.042969 151.789062 37.042969 158.125 Z M 60.859375 173.996094 C 52.089844 173.996094 44.984375 166.890625 44.984375 158.125 C 44.984375 149.359375 52.089844 142.253906 60.859375 142.253906 C 69.625 142.253906 76.730469 149.359375 76.730469 158.125 C 76.730469 166.890625 69.625 173.996094 60.859375 173.996094 Z M 60.859375 173.996094 " fill-opacity="1" fill-rule="nonzero"/></g><g clip-path="url(#fe5d64176d)"><path fill="#3858e9" d="M 203.734375 11.296875 L 92.605469 11.296875 C 83.839844 11.296875 76.730469 18.402344 76.730469 27.167969 L 76.730469 97.726562 C 79.152344 99.902344 80.703125 103.027344 80.703125 106.53125 L 80.703125 110.222656 L 84.871094 106.054688 C 89.515625 101.410156 97.0625 101.410156 101.707031 106.054688 L 112.929688 117.273438 C 117.574219 121.917969 117.574219 129.464844 112.929688 134.109375 L 108.761719 138.277344 L 203.730469 138.277344 C 212.5 138.277344 219.605469 131.171875 219.605469 122.40625 L 219.605469 27.167969 C 219.605469 18.402344 212.5 11.296875 203.730469 11.296875 Z M 94.597656 62.882812 C 91.304688 62.882812 88.644531 60.21875 88.644531 56.933594 C 88.644531 53.648438 91.3125 50.980469 94.597656 50.980469 C 97.882812 50.980469 100.546875 53.648438 100.546875 56.933594 C 100.546875 60.21875 97.882812 62.882812 94.597656 62.882812 Z M 94.597656 39.074219 C 91.304688 39.074219 88.644531 36.410156 88.644531 33.125 C 88.644531 29.839844 91.3125 27.171875 94.597656 27.171875 C 97.882812 27.171875 100.546875 29.839844 100.546875 33.125 C 100.546875 36.410156 97.882812 39.074219 94.597656 39.074219 Z M 132.300781 98.601562 L 132.300781 50.980469 L 171.988281 74.789062 Z M 132.300781 98.601562 " fill-opacity="1" fill-rule="nonzero"/></g></svg>