<svg
        xmlns="http://www.w3.org/2000/svg"
        viewBox="0 0 512.001 512.001"
        xmlSpace="preserve"
    >
        <path
            d="m500.603 211.604-25.595-6.298c-5.401-24.297-14.998-47.395-28.198-68.392l12.9-21.596c3.596-5.999 2.699-13.498-2.102-18.298l-20.996-20.997-21.596-21.596c-4.8-4.8-12.299-5.699-18.301-2.1l-21.596 12.898c-20.996-13.198-44.094-22.797-68.392-28.196l-6.298-25.597C298.928 4.832 292.93.033 286.032.033h-59.993c-6.898 0-12.896 4.798-14.397 11.399l-6.298 25.597c-24.299 5.399-47.396 14.998-68.392 28.196l-21.598-12.898c-5.999-3.6-13.498-2.701-18.298 2.1L54.459 97.021c-4.8 4.798-5.699 12.297-2.1 18.298l12.898 21.596c-13.198 20.997-22.797 44.095-28.196 68.392l-25.597 6.298c-6.6 1.501-11.399 7.499-11.399 14.399v59.992c0 6.898 4.798 12.898 11.399 14.397l25.597 6.3c6.898 30.296 20.397 59.092 38.995 83.99l45.294 45.294c24.898 18.598 53.692 32.096 83.99 38.995l6.298 25.597c1.501 6.598 7.499 11.399 14.397 11.399h59.993c6.898 0 12.896-4.8 14.397-11.399l6.298-25.597c24.299-5.399 47.396-14.998 68.392-28.197l21.596 12.898c6.001 3.6 13.5 2.701 18.301-2.1l42.593-42.594c4.8-4.798 5.697-12.297 2.102-18.298l-12.9-21.598c13.2-20.997 22.797-44.093 28.198-68.39l25.595-6.3c6.602-1.5 11.399-7.499 11.399-14.397v-59.992c.002-6.901-4.794-12.899-11.396-14.4zm-244.57 179.379c-35.094 0-67.192-13.198-90.89-35.696-1.5-.901-2.699-2.1-4.198-3.6-24.597-24.297-39.896-58.193-39.896-95.688 0-74.691 60.292-134.983 134.983-134.983 37.495 0 71.391 15.298 95.686 39.894 1.501 1.501 2.703 2.701 3.604 4.199 22.497 23.698 35.694 55.793 35.694 90.89 0 74.691-60.292 134.984-134.983 134.984z"
            fill="#b7e0f6"
        />
        <path
            d="M512.001 226.003v59.992c0 6.898-4.796 12.898-11.399 14.397l-25.595 6.3c-5.401 24.297-14.998 47.393-28.198 68.39l12.9 21.598c3.596 5.999 2.699 13.498-2.102 18.298l-42.593 42.594c-4.8 4.8-12.299 5.699-18.301 2.1l-21.596-12.898c-20.996 13.198-44.094 22.797-68.392 28.197l-6.298 25.597c-1.501 6.598-7.499 11.399-14.397 11.399h-59.993c-6.898 0-12.896-4.8-14.397-11.399l-6.298-25.597c-30.298-6.898-59.094-20.397-83.99-38.995l-22.497-22.497 62.092-61.792c1.5 1.5 2.699 2.699 4.198 3.6 23.698 22.497 55.796 35.696 90.89 35.696 74.691 0 134.983-60.292 134.983-134.983 0-35.097-13.196-67.192-35.694-90.89-.901-1.5-2.102-2.699-3.604-4.199l84.891-84.888 20.996 20.997c4.8 4.798 5.697 12.297 2.102 18.298l-12.9 21.596c13.2 20.997 22.797 44.095 28.198 68.392l25.595 6.298c6.603 1.501 11.399 7.499 11.399 14.399z"
            fill="#a4d9f5"
        />
        <path
            d="M357.609 228.932a14.994 14.994 0 0 0-10.555-10.806 14.994 14.994 0 0 0-14.596 3.867l-34.008 34.008c-5.653 5.653-13.182 8.759-21.208 8.759s-15.555-3.105-21.208-8.759c-11.688-11.688-11.688-30.728 0-42.417l34.241-34.241c3.768-3.768 5.222-9.266 3.813-14.403s-5.466-9.131-10.63-10.443c-12.859-3.267-29.649-4.782-46.933-1.741-42.314 7.763-75.972 41.421-83.75 83.808-3.354 18.748-1.86 37.422 4.276 54.617-8.535 8.535-140.349 140.347-143.892 143.892-17.591 17.591-17.591 46.21.278 64.079 17.702 16.78 44.813 17.486 63.522-.278l143.892-143.892c23.043 8.224 48.742 8.057 73.89-.817 33.967-11.987 57.472-43.336 64.535-78.656l.015-.073c3.033-16.962 1.546-33.641-1.682-46.504z"
            fill="#17ace8"
        />
        <path
            d="m76.961 498.873 143.892-143.892c23.043 8.224 48.742 8.057 73.891-.817 33.968-11.987 57.472-43.336 64.535-78.656l.015-.073c3.06-17.117 1.518-33.946-1.772-46.856a14.822 14.822 0 0 0-10.445-10.634 14.819 14.819 0 0 0-14.399 3.827L298.452 256c-5.653 5.653-13.182 8.759-21.208 8.759-7.889 0-15.254-3.065-20.875-8.535L13.438 499.152c17.702 16.779 44.813 17.486 63.523-.279z"
            fill="#1689fc"
        />
    </svg>