<svg id="fi_9464164" enable-background="new 0 0 4000 4000" viewBox="0 0 4000 4000" xmlns="http://www.w3.org/2000/svg"><g><g><g><path d="m1888 2448v336c0 184.789-151.211 336-336 336h-336c-184.789 0-336-151.211-336-336v-336c0-184.789 151.211-336 336-336h336c184.789 0 336 151.211 336 336z" fill="#1e2959"></path></g><g><path d="m1888 1216v336c0 184.789-151.211 336-336 336h-336c-184.789 0-336-151.211-336-336v-336c0-184.789 151.211-336 336-336h336c184.789 0 336 151.211 336 336z" fill="#1e2959"></path></g></g><g><g><path d="m3120 2448v336c0 184.789-151.211 336-336 336h-336c-184.789 0-336-151.211-336-336v-336c0-184.789 151.211-336 336-336h336c184.789 0 336 151.211 336 336z" fill="#1e2959"></path></g><g><path d="m3120 1216v336c0 184.789-151.211 336-336 336h-336c-184.789 0-336-151.211-336-336v-336c0-184.789 151.211-336 336-336h336c184.789 0 336 151.211 336 336z" fill="#1e2959"></path></g></g></g></svg>