<svg xmlns="http://www.w3.org/2000/svg" xmlns:xlink="http://www.w3.org/1999/xlink" width="300" zoomAndPan="magnify" viewBox="0 0 224.87999 225" height="300" preserveAspectRatio="xMidYMid meet" version="1.0"><path fill="#3858e9" d="M 128.605469 107.234375 C 128.605469 107.234375 124.164062 91.085938 110.46875 92.296875 C 101.207031 93.117188 97.675781 96.480469 88.554688 87.144531 C 91.261719 103.984375 101.371094 126.019531 121.679688 119.230469 Z M 128.605469 107.234375 " fill-opacity="1" fill-rule="evenodd"/><path fill="#3858e9" d="M 152.355469 118.769531 L 131.988281 108.878906 L 124.796875 121.339844 L 142.84375 133.558594 L 143.542969 134.03125 Z M 152.355469 118.769531 " fill-opacity="1" fill-rule="evenodd"/><path fill="#3858e9" d="M 162.679688 124.574219 L 155.664062 120.523438 L 146.714844 136.019531 L 195.546875 164.210938 L 204.492188 148.714844 Z M 162.679688 124.574219 " fill-opacity="1" fill-rule="evenodd"/><path fill="#3858e9" d="M 207.726562 150.582031 L 198.78125 166.078125 L 205.34375 169.867188 C 209.601562 172.328125 215.101562 170.851562 217.5625 166.59375 C 220.023438 162.332031 218.546875 156.832031 214.289062 154.371094 Z M 207.726562 150.582031 " fill-opacity="1" fill-rule="evenodd"/><path fill="#3858e9" d="M 140.761719 136.683594 C 138.230469 141.726562 138.394531 148.539062 142.8125 157.617188 C 149.886719 172.152344 167.273438 182.65625 139.480469 194.050781 C 71.804688 221.800781 15.976562 189.253906 9.15625 118.648438 C 3.054688 55.480469 44.90625 3.550781 107.996094 6.914062 C 170.554688 10.253906 221.890625 122.230469 172.417969 123.707031 C 171.273438 123.742188 170.125 123.796875 168.976562 123.875 L 157.546875 117.277344 L 157.621094 117.152344 L 155.800781 116.269531 L 154.289062 115.398438 L 154.226562 115.503906 L 131.679688 104.558594 C 130.722656 101.945312 129.21875 99.183594 127.707031 97.105469 C 123.488281 91.296875 117.460938 87.914062 110.140625 88.558594 C 100.542969 89.410156 98.882812 92.34375 91.238281 84.523438 L 82.972656 76.0625 L 84.847656 87.742188 C 86.835938 100.105469 92.769531 116.035156 104.628906 121.949219 C 109.894531 124.574219 115.511719 124.8125 121.050781 123.335938 L 140.742188 136.667969 Z M 122.695312 65.472656 C 118.320312 57.890625 120.917969 48.195312 128.5 43.816406 C 136.078125 39.441406 145.773438 42.039062 150.152344 49.621094 C 154.527344 57.203125 151.929688 66.894531 144.347656 71.273438 C 136.769531 75.648438 127.074219 73.050781 122.695312 65.472656 Z M 80.492188 51.289062 C 76.117188 43.707031 78.714844 34.011719 86.292969 29.632812 C 93.875 25.257812 103.570312 27.855469 107.949219 35.4375 C 112.324219 43.019531 109.726562 52.710938 102.144531 57.089844 C 94.5625 61.464844 84.871094 58.867188 80.492188 51.289062 Z M 42.703125 75.050781 C 38.324219 67.46875 40.921875 57.773438 48.503906 53.394531 C 56.085938 49.019531 65.78125 51.617188 70.15625 59.199219 C 74.535156 66.777344 71.9375 76.472656 64.355469 80.851562 C 56.773438 85.226562 47.082031 82.628906 42.703125 75.050781 Z M 28.519531 121.464844 C 24.144531 113.882812 26.742188 104.1875 34.324219 99.808594 C 41.902344 95.433594 51.597656 98.03125 55.976562 105.613281 C 60.351562 113.191406 57.753906 122.886719 50.171875 127.265625 C 42.59375 131.640625 32.898438 129.042969 28.519531 121.464844 Z M 47.632812 166.632812 C 43.257812 159.050781 45.855469 149.355469 53.4375 144.980469 C 61.019531 140.601562 70.710938 143.199219 75.089844 150.78125 C 79.464844 158.363281 76.867188 168.058594 69.289062 172.433594 C 61.707031 176.8125 52.011719 174.214844 47.632812 166.632812 Z M 47.632812 166.632812 " fill-opacity="1" fill-rule="evenodd"/></svg>