<svg xmlns="http://www.w3.org/2000/svg" xmlns:xlink="http://www.w3.org/1999/xlink" width="300" zoomAndPan="magnify" viewBox="0 0 224.87999 225" height="300" preserveAspectRatio="xMidYMid meet" version="1.0"><defs><clipPath id="a226679209"><path d="M 5.621094 5.683594 L 219.257812 5.683594 L 219.257812 219.316406 L 5.621094 219.316406 Z M 5.621094 5.683594 " clip-rule="nonzero"/></clipPath></defs><path fill="#3858e9" d="M 131.054688 112.5 C 131.054688 113.101562 131.023438 113.703125 130.964844 114.304688 C 130.90625 114.902344 130.816406 115.496094 130.699219 116.089844 C 130.582031 116.679688 130.4375 117.261719 130.261719 117.839844 C 130.085938 118.414062 129.882812 118.980469 129.652344 119.539062 C 129.421875 120.09375 129.164062 120.640625 128.882812 121.171875 C 128.597656 121.703125 128.289062 122.21875 127.953125 122.71875 C 127.621094 123.21875 127.261719 123.703125 126.878906 124.167969 C 126.496094 124.632812 126.09375 125.078125 125.667969 125.503906 C 125.242188 125.933594 124.792969 126.335938 124.328125 126.71875 C 123.863281 127.101562 123.378906 127.457031 122.878906 127.792969 C 122.378906 128.128906 121.863281 128.4375 121.332031 128.722656 C 120.800781 129.003906 120.257812 129.261719 119.699219 129.492188 C 119.144531 129.722656 118.578125 129.925781 118 130.101562 C 117.421875 130.277344 116.839844 130.421875 116.25 130.539062 C 115.65625 130.65625 115.0625 130.746094 114.464844 130.804688 C 113.863281 130.863281 113.261719 130.894531 112.660156 130.894531 C 112.058594 130.894531 111.457031 130.863281 110.859375 130.804688 C 110.257812 130.746094 109.664062 130.65625 109.074219 130.539062 C 108.480469 130.421875 107.898438 130.277344 107.320312 130.101562 C 106.746094 129.925781 106.179688 129.722656 105.621094 129.492188 C 105.066406 129.261719 104.523438 129.003906 103.992188 128.722656 C 103.460938 128.4375 102.941406 128.128906 102.441406 127.792969 C 101.941406 127.457031 101.457031 127.101562 100.992188 126.71875 C 100.527344 126.335938 100.082031 125.933594 99.65625 125.503906 C 99.230469 125.078125 98.824219 124.632812 98.441406 124.167969 C 98.058594 123.703125 97.703125 123.21875 97.367188 122.71875 C 97.03125 122.21875 96.722656 121.703125 96.441406 121.171875 C 96.15625 120.640625 95.898438 120.09375 95.667969 119.539062 C 95.4375 118.980469 95.234375 118.414062 95.058594 117.839844 C 94.886719 117.261719 94.738281 116.679688 94.621094 116.089844 C 94.503906 115.496094 94.414062 114.902344 94.355469 114.304688 C 94.296875 113.703125 94.269531 113.101562 94.269531 112.5 C 94.269531 111.898438 94.296875 111.296875 94.355469 110.695312 C 94.414062 110.097656 94.503906 109.503906 94.621094 108.910156 C 94.738281 108.320312 94.886719 107.738281 95.058594 107.160156 C 95.234375 106.585938 95.4375 106.019531 95.667969 105.460938 C 95.898438 104.90625 96.15625 104.359375 96.441406 103.828125 C 96.722656 103.296875 97.03125 102.78125 97.367188 102.28125 C 97.703125 101.78125 98.0625 101.296875 98.441406 100.832031 C 98.824219 100.367188 99.230469 99.921875 99.65625 99.496094 C 100.082031 99.066406 100.527344 98.664062 100.992188 98.28125 C 101.457031 97.898438 101.941406 97.542969 102.441406 97.207031 C 102.941406 96.871094 103.460938 96.5625 103.992188 96.277344 C 104.523438 95.996094 105.066406 95.738281 105.621094 95.507812 C 106.179688 95.277344 106.746094 95.074219 107.320312 94.898438 C 107.898438 94.722656 108.480469 94.578125 109.074219 94.460938 C 109.664062 94.34375 110.257812 94.253906 110.859375 94.195312 C 111.457031 94.136719 112.058594 94.105469 112.660156 94.105469 C 113.261719 94.105469 113.863281 94.136719 114.464844 94.195312 C 115.0625 94.253906 115.65625 94.34375 116.25 94.460938 C 116.839844 94.578125 117.421875 94.722656 118 94.898438 C 118.578125 95.074219 119.144531 95.277344 119.699219 95.507812 C 120.257812 95.738281 120.800781 95.996094 121.332031 96.277344 C 121.863281 96.5625 122.378906 96.871094 122.878906 97.207031 C 123.378906 97.542969 123.863281 97.898438 124.328125 98.28125 C 124.792969 98.664062 125.242188 99.066406 125.667969 99.496094 C 126.09375 99.921875 126.496094 100.367188 126.878906 100.832031 C 127.261719 101.296875 127.621094 101.78125 127.953125 102.28125 C 128.289062 102.78125 128.597656 103.296875 128.882812 103.828125 C 129.164062 104.359375 129.421875 104.90625 129.652344 105.460938 C 129.882812 106.019531 130.085938 106.585938 130.261719 107.160156 C 130.4375 107.738281 130.582031 108.320312 130.699219 108.910156 C 130.816406 109.503906 130.90625 110.097656 130.964844 110.695312 C 131.023438 111.296875 131.054688 111.898438 131.054688 112.5 Z M 131.054688 112.5 " fill-opacity="1" fill-rule="nonzero"/><g clip-path="url(#a226679209)"><path fill="#3858e9" d="M 215.03125 94.269531 L 189.316406 89.449219 C 187.753906 84.25 185.707031 79.261719 183.171875 74.570312 L 198.050781 52.824219 C 199.425781 50.808594 199.144531 47.78125 197.417969 46.0625 L 179.078125 27.714844 C 177.351562 25.992188 174.328125 25.710938 172.316406 27.085938 L 150.5625 41.96875 C 145.734375 39.363281 140.59375 37.277344 135.234375 35.703125 L 130.441406 10.125 C 129.984375 7.730469 127.652344 5.789062 125.210938 5.789062 L 99.269531 5.789062 C 96.828125 5.789062 94.492188 7.730469 94.039062 10.125 L 89.195312 35.953125 C 84.054688 37.523438 79.125 39.574219 74.480469 42.097656 L 53 27.402344 C 50.988281 26.027344 47.960938 26.308594 46.238281 28.035156 L 27.894531 46.378906 C 26.167969 48.105469 25.890625 51.128906 27.265625 53.140625 L 42.050781 74.75 C 39.5625 79.394531 37.542969 84.320312 36 89.453125 L 10.292969 94.269531 C 7.898438 94.726562 5.957031 97.058594 5.957031 99.5 L 5.957031 125.441406 C 5.957031 127.882812 7.898438 130.21875 10.292969 130.671875 L 35.980469 135.488281 C 37.546875 140.730469 39.613281 145.761719 42.164062 150.492188 L 27.546875 171.863281 C 26.167969 173.875 26.453125 176.902344 28.175781 178.625 L 46.515625 196.96875 C 48.242188 198.695312 51.265625 198.972656 53.28125 197.601562 L 74.644531 182.976562 C 79.238281 185.460938 84.117188 187.484375 89.203125 189.046875 L 94.046875 214.878906 C 94.5 217.269531 96.835938 219.210938 99.277344 219.210938 L 125.21875 219.210938 C 127.660156 219.210938 129.996094 217.269531 130.449219 214.878906 L 135.242188 189.292969 C 140.542969 187.730469 145.632812 185.671875 150.417969 183.109375 L 172.054688 197.914062 C 174.066406 199.292969 177.097656 199.007812 178.816406 197.285156 L 197.15625 178.949219 C 198.882812 177.222656 199.160156 174.199219 197.789062 172.1875 L 183.066406 150.671875 C 185.667969 145.886719 187.761719 140.796875 189.347656 135.488281 L 215.035156 130.671875 C 217.425781 130.21875 219.367188 127.882812 219.367188 125.441406 L 219.367188 99.5 C 219.367188 97.058594 217.421875 94.726562 215.03125 94.269531 Z M 112.660156 157.015625 C 88.082031 157.015625 68.15625 137.085938 68.15625 112.496094 C 68.15625 87.921875 88.082031 67.988281 112.660156 67.988281 C 137.246094 67.988281 157.179688 87.921875 157.179688 112.496094 C 157.179688 137.085938 137.242188 157.015625 112.660156 157.015625 Z M 112.660156 157.015625 " fill-opacity="1" fill-rule="nonzero"/></g></svg>