<svg xmlns="http://www.w3.org/2000/svg" xmlns:xlink="http://www.w3.org/1999/xlink" width="300" zoomAndPan="magnify" viewBox="0 0 224.87999 225" height="300" preserveAspectRatio="xMidYMid meet" version="1.0"><defs><clipPath id="dd745d1f2e"><path d="M 3 130 L 221.875 130 L 221.875 218.019531 L 3 218.019531 Z M 3 130 " clip-rule="nonzero"/></clipPath><clipPath id="be0a58521c"><path d="M 3 6.632812 L 221.875 6.632812 L 221.875 95 L 3 95 Z M 3 6.632812 " clip-rule="nonzero"/></clipPath></defs><path fill="#3858e9" d="M 121.671875 31.523438 C 118.117188 31.523438 115.988281 32.949219 114.566406 36.507812 C 113.144531 40.066406 112.433594 44.335938 112.433594 50.03125 C 112.433594 55.726562 113.144531 60.710938 114.566406 63.558594 C 115.988281 67.117188 118.117188 68.542969 121.671875 68.542969 C 125.222656 68.542969 127.355469 67.117188 128.777344 63.558594 C 130.199219 60 130.910156 55.726562 130.910156 49.320312 C 130.910156 43.625 130.199219 38.644531 128.777344 35.082031 C 127.355469 33.660156 125.222656 31.523438 121.671875 31.523438 Z M 121.671875 31.523438 " fill-opacity="1" fill-rule="nonzero"/><g clip-path="url(#dd745d1f2e)"><path fill="#3858e9" d="M 177.808594 130.472656 L 47.058594 130.472656 C 22.894531 130.472656 3 150.40625 3 174.609375 C 3 198.8125 22.894531 218.746094 47.058594 218.746094 L 177.808594 218.746094 C 201.96875 218.746094 221.867188 198.8125 221.867188 174.609375 C 221.867188 150.40625 201.96875 130.472656 177.808594 130.472656 Z M 54.875 193.832031 C 52.03125 198.101562 47.769531 200.238281 41.371094 200.238281 C 35.6875 200.238281 31.421875 198.101562 27.871094 193.832031 C 25.027344 189.558594 23.605469 183.152344 23.605469 174.609375 C 23.605469 166.066406 25.027344 159.660156 27.871094 155.390625 C 30.714844 151.117188 35.6875 148.984375 41.371094 148.984375 C 47.058594 148.984375 51.320312 151.117188 54.875 155.390625 C 57.714844 159.660156 59.136719 166.066406 59.136719 174.609375 C 59.136719 183.152344 57.714844 189.558594 54.875 193.832031 Z M 99.640625 199.523438 L 91.824219 199.523438 L 73.351562 159.660156 L 73.351562 199.523438 L 66.242188 199.523438 L 66.242188 149.695312 L 76.902344 149.695312 L 93.246094 185.289062 L 93.246094 149.695312 L 100.351562 149.695312 L 100.351562 199.523438 Z M 177.097656 208.066406 C 158.625 208.066406 143.699219 193.117188 143.699219 174.609375 C 143.699219 156.101562 158.625 141.152344 177.097656 141.152344 C 195.574219 141.152344 210.496094 156.101562 210.496094 174.609375 C 210.496094 193.117188 195.574219 208.066406 177.097656 208.066406 Z M 177.097656 208.066406 " fill-opacity="1" fill-rule="nonzero"/></g><path fill="#3858e9" d="M 41.371094 155.390625 C 37.820312 155.390625 35.6875 156.8125 34.265625 160.371094 C 32.84375 163.933594 32.132812 168.203125 32.132812 173.898438 C 32.132812 179.59375 32.84375 184.574219 34.265625 187.421875 C 35.6875 190.984375 37.820312 192.40625 41.371094 192.40625 C 44.925781 192.40625 47.058594 190.984375 48.476562 187.421875 C 49.898438 183.863281 50.609375 179.59375 50.609375 173.1875 C 50.609375 167.492188 49.898438 162.507812 48.476562 158.949219 C 47.769531 157.523438 44.925781 155.390625 41.371094 155.390625 Z M 41.371094 155.390625 " fill-opacity="1" fill-rule="nonzero"/><g clip-path="url(#be0a58521c)"><path fill="#3858e9" d="M 177.808594 6.609375 L 47.058594 6.609375 C 22.894531 6.609375 3 26.542969 3 50.746094 C 3 74.949219 22.894531 94.878906 47.058594 94.878906 L 177.808594 94.878906 C 201.96875 94.878906 221.867188 74.949219 221.867188 50.746094 C 221.867188 26.542969 201.96875 6.609375 177.808594 6.609375 Z M 47.769531 84.203125 C 29.292969 84.203125 14.367188 69.253906 14.367188 50.746094 C 14.367188 32.234375 29.292969 17.285156 47.769531 17.285156 C 66.242188 17.285156 81.167969 32.234375 81.167969 50.746094 C 81.167969 69.253906 66.242188 84.203125 47.769531 84.203125 Z M 135.171875 69.964844 C 132.332031 74.234375 128.066406 76.371094 121.671875 76.371094 C 115.988281 76.371094 111.722656 74.234375 108.167969 69.964844 C 105.328125 65.695312 103.90625 59.285156 103.90625 50.746094 C 103.90625 42.203125 105.328125 35.796875 108.167969 31.523438 C 111.011719 27.253906 115.988281 25.117188 121.671875 25.117188 C 127.355469 25.117188 131.621094 27.253906 135.171875 31.523438 C 138.015625 35.796875 139.4375 42.203125 139.4375 50.746094 C 139.4375 59.285156 138.015625 65.695312 135.171875 69.964844 Z M 174.96875 32.234375 L 155.78125 32.234375 L 155.78125 47.183594 L 171.414062 47.183594 L 171.414062 53.59375 L 155.78125 53.59375 L 155.78125 74.949219 L 147.253906 74.949219 L 147.253906 25.117188 L 174.96875 25.117188 Z M 206.234375 32.234375 L 187.046875 32.234375 L 187.046875 47.183594 L 202.679688 47.183594 L 202.679688 53.59375 L 187.046875 53.59375 L 187.046875 74.949219 L 178.519531 74.949219 L 178.519531 25.117188 L 206.234375 25.117188 Z M 206.234375 32.234375 " fill-opacity="1" fill-rule="nonzero"/></g></svg>