<svg xmlns="http://www.w3.org/2000/svg" xmlns:xlink="http://www.w3.org/1999/xlink" width="300" zoomAndPan="magnify" viewBox="0 0 224.87999 225" height="300" preserveAspectRatio="xMidYMid meet" version="1.0"><defs><clipPath id="ff08cf0c0c"><path d="M 8.382812 6.316406 L 116 6.316406 L 116 115 L 8.382812 115 Z M 8.382812 6.316406 " clip-rule="nonzero"/></clipPath><clipPath id="39438635a8"><path d="M 113 113 L 215 113 L 215 218.386719 L 113 218.386719 Z M 113 113 " clip-rule="nonzero"/></clipPath><clipPath id="3a128c25b3"><path d="M 8.382812 14 L 215 14 L 215 218.386719 L 8.382812 218.386719 Z M 8.382812 14 " clip-rule="nonzero"/></clipPath></defs><path fill="#3858e9" d="M 73.191406 93.875 L 54.53125 74.636719 L 53.984375 74.070312 C 53.464844 73.574219 52.945312 73.117188 52.433594 72.6875 C 51.5625 73.082031 50.847656 73.796875 50.449219 74.71875 L 41.582031 95.316406 C 40.859375 97.011719 41.398438 98.980469 42.894531 100.070312 L 54.308594 108.371094 C 53.695312 113.285156 53.640625 118.195312 54.132812 123.03125 L 42.507812 131.0625 C 41.53125 131.738281 40.929688 132.792969 40.824219 133.910156 C 40.753906 134.53125 40.84375 135.167969 41.082031 135.78125 L 42.941406 140.402344 L 45.214844 146.0625 L 59.792969 131.640625 L 61.089844 130.367188 L 61.320312 130.140625 L 65.046875 126.457031 L 66.015625 127.414062 C 66.976562 127.117188 67.972656 126.941406 68.996094 126.90625 C 68.722656 125.597656 68.5 124.277344 68.335938 122.949219 C 67.214844 114.136719 68.359375 104.929688 72.125 96.175781 C 72.460938 95.394531 72.8125 94.628906 73.191406 93.875 " fill-opacity="1" fill-rule="nonzero"/><path fill="#3858e9" d="M 156.042969 179.261719 L 140.855469 163.609375 C 138.953125 164.453125 136.996094 165.191406 135.003906 165.804688 C 132.917969 166.457031 130.773438 166.976562 128.597656 167.351562 C 119.078125 169.023438 108.984375 168.046875 99.441406 163.996094 L 97.199219 166.210938 L 96.972656 166.429688 L 95.675781 167.714844 L 77.6875 185.507812 C 77.710938 185.527344 77.746094 185.542969 77.773438 185.550781 L 98.425781 194.382812 C 100.128906 195.113281 102.101562 194.566406 103.195312 193.082031 L 111.53125 181.703125 C 116.460938 182.320312 121.386719 182.363281 126.226562 181.878906 L 134.28125 193.46875 C 134.714844 194.09375 135.3125 194.566406 135.972656 194.847656 C 136.917969 195.253906 138.011719 195.289062 139.015625 194.882812 L 139.554688 194.675781 L 146.269531 191.992188 L 155.242188 188.425781 L 159.886719 186.570312 C 160.195312 186.449219 160.476562 186.289062 160.742188 186.097656 C 158.828125 182.300781 156.59375 179.832031 156.113281 179.332031 L 156.042969 179.261719 " fill-opacity="1" fill-rule="nonzero"/><path fill="#3858e9" d="M 198.308594 97.257812 L 198.238281 97.089844 L 189.960938 76.449219 C 189.636719 75.632812 189.054688 74.964844 188.339844 74.53125 C 188.179688 74.4375 188.015625 74.359375 187.847656 74.277344 C 187.175781 73.996094 186.425781 73.890625 185.667969 74.003906 L 171.699219 76.175781 C 170.941406 75.207031 170.164062 74.257812 169.34375 73.339844 L 159.296875 83.277344 C 160.011719 84.121094 160.699219 85 161.359375 85.886719 C 162.832031 87.871094 164.152344 89.964844 165.316406 92.136719 C 166.226562 93.832031 167.035156 95.578125 167.757812 97.363281 C 168.367188 98.875 168.894531 100.421875 169.363281 101.984375 C 169.910156 103.839844 170.351562 105.726562 170.683594 107.644531 C 172.367188 117.175781 171.382812 127.292969 167.265625 136.851562 C 166.4375 138.769531 165.511719 140.613281 164.488281 142.371094 L 174.582031 152.765625 C 177.375 155.640625 180.476562 158.238281 183.84375 160.515625 L 184.585938 160.648438 C 186.410156 160.976562 188.214844 160.007812 188.9375 158.3125 L 197.796875 137.714844 C 198.527344 136.027344 197.992188 134.050781 196.492188 132.96875 L 185.078125 124.65625 C 185.695312 119.746094 185.75 114.832031 185.257812 110.007812 L 196.882812 101.976562 C 198.40625 100.921875 198.996094 98.960938 198.308594 97.257812 " fill-opacity="1" fill-rule="nonzero"/><path fill="#3858e9" d="M 77.316406 52.40625 C 77.570312 52.726562 77.855469 53.039062 78.136719 53.367188 L 95.269531 71.027344 C 95.515625 70.886719 95.765625 70.761719 96.019531 70.632812 C 97.472656 69.886719 98.964844 69.207031 100.480469 68.601562 C 102.277344 67.890625 104.101562 67.273438 105.960938 66.765625 C 108.34375 66.105469 110.773438 65.621094 113.234375 65.304688 C 122.074219 64.199219 131.320312 65.34375 140.101562 69.09375 C 141.519531 69.699219 142.894531 70.367188 144.234375 71.089844 L 163.996094 51.554688 C 164.195312 49.832031 163.238281 48.171875 161.625 47.476562 L 140.960938 38.644531 C 139.261719 37.925781 137.289062 38.460938 136.195312 39.949219 L 127.859375 51.335938 C 122.9375 50.710938 118.011719 50.667969 113.164062 51.152344 L 105.105469 39.570312 C 104.675781 38.9375 104.074219 38.472656 103.414062 38.179688 C 103.238281 38.109375 103.0625 38.050781 102.886719 38.003906 C 102.074219 37.785156 101.203125 37.820312 100.375 38.144531 L 79.679688 46.394531 L 79.503906 46.457031 C 77.792969 47.144531 76.769531 48.917969 77.058594 50.746094 L 77.316406 52.40625 " fill-opacity="1" fill-rule="nonzero"/><g clip-path="url(#ff08cf0c0c)"><path fill="#3858e9" d="M 11.683594 41.984375 C 15.421875 51.0625 22.605469 62.425781 35.035156 62.425781 C 35.933594 62.425781 36.859375 62.363281 37.8125 62.238281 C 37.8125 62.238281 38.570312 62.070312 39.910156 62.070312 C 43.328125 62.070312 50.496094 63.164062 58.347656 70.949219 L 58.332031 70.964844 L 60.753906 73.460938 L 75.871094 89.050781 L 100.453125 114.382812 L 104.324219 110.558594 L 78.894531 84.734375 L 68.941406 74.628906 L 63.292969 68.890625 C 61.441406 67.019531 61.46875 64.007812 63.355469 62.160156 C 64.289062 61.257812 65.496094 60.796875 66.695312 60.796875 C 67.9375 60.796875 69.171875 61.28125 70.113281 62.230469 L 75.550781 67.75 L 85.453125 77.808594 L 111.101562 103.859375 L 115.523438 99.480469 L 90.625 73.820312 L 78.753906 61.589844 L 74.257812 56.949219 C 58.304688 39.058594 71.515625 27.476562 58.179688 14.949219 C 51.78125 8.925781 43.511719 6.898438 36.671875 6.421875 C 35.441406 6.335938 34.257812 6.300781 33.140625 6.300781 C 29.375 6.300781 26.34375 6.703125 24.738281 6.964844 C 24.28125 7.046875 24.15625 7.636719 24.546875 7.898438 L 42.386719 19.816406 C 43.636719 20.660156 44.402344 22.046875 44.402344 23.546875 C 44.429688 26.457031 43.820312 29.375 42.507812 32.097656 C 40.074219 37.207031 35.640625 40.816406 30.300781 42.617188 C 29.859375 42.769531 29.394531 42.84375 28.933594 42.84375 C 28.097656 42.84375 27.257812 42.609375 26.535156 42.167969 L 9.234375 31.582031 C 9.148438 31.53125 9.058594 31.511719 8.960938 31.511719 C 8.652344 31.511719 8.378906 31.792969 8.46875 32.140625 C 8.910156 33.972656 9.914062 37.722656 11.683594 41.984375 " fill-opacity="1" fill-rule="nonzero"/></g><g clip-path="url(#39438635a8)"><path fill="#3858e9" d="M 205.296875 202.808594 L 204.777344 207.800781 C 204.777344 207.800781 202.265625 208.144531 199.789062 208.496094 L 196.828125 212.554688 C 196.828125 212.554688 194.476562 211.617188 192.15625 210.683594 L 187.554688 212.722656 C 187.554688 212.722656 185.996094 210.730469 184.453125 208.769531 L 179.453125 208.242188 C 179.453125 208.242188 179.09375 205.738281 178.75 203.265625 L 174.675781 200.3125 C 174.675781 200.3125 175.628906 197.96875 176.5625 195.667969 L 174.511719 191.078125 C 174.511719 191.078125 174.589844 191.019531 174.714844 190.921875 C 175.277344 190.484375 176.890625 189.226562 178.476562 187.984375 L 179.003906 182.996094 C 179.003906 182.996094 181.515625 182.644531 183.996094 182.292969 L 186.957031 178.230469 C 186.957031 178.230469 189.308594 179.179688 191.621094 180.113281 L 193.117188 179.453125 L 196.21875 178.074219 C 196.21875 178.074219 197.789062 180.058594 199.324219 182.027344 L 204.339844 182.546875 C 204.339844 182.546875 204.691406 185.050781 205.035156 187.519531 L 209.105469 190.472656 C 209.105469 190.472656 208.164062 192.820312 207.21875 195.128906 L 209.265625 199.71875 C 209.265625 199.71875 207.273438 201.273438 205.296875 202.808594 Z M 199.078125 173.574219 C 198.988281 173.546875 198.898438 173.523438 198.800781 173.496094 C 189.140625 170.472656 180.265625 165.421875 172.921875 158.53125 C 172.191406 157.855469 171.476562 157.160156 170.785156 156.4375 L 161.527344 146.90625 L 128.929688 113.300781 L 124.613281 117.574219 L 157.886719 151.371094 L 164.464844 158.039062 C 166.25 159.859375 166.277344 162.730469 164.558594 164.585938 C 164.53125 164.621094 164.496094 164.648438 164.472656 164.671875 C 164.445312 164.707031 164.417969 164.742188 164.390625 164.769531 C 164.328125 164.824219 164.269531 164.867188 164.207031 164.917969 C 164.128906 164.988281 164.058594 165.058594 163.976562 165.128906 C 163.125 165.789062 162.082031 166.121094 161.050781 166.121094 C 160.664062 166.121094 160.273438 166.078125 159.898438 165.980469 C 159.066406 165.78125 158.292969 165.351562 157.640625 164.699219 L 150.800781 157.757812 L 117.835938 124.277344 L 113.859375 128.207031 L 145.769531 161.089844 L 159.84375 175.597656 L 159.921875 175.675781 C 160.136719 175.894531 160.769531 176.570312 161.617188 177.660156 C 164.121094 180.875 168.480469 187.652344 168.886719 196.289062 C 169.246094 204.988281 174.535156 213.074219 182.902344 216.542969 C 185.890625 217.785156 188.9375 218.355469 191.910156 218.355469 C 202.574219 218.355469 212.246094 210.921875 214.476562 199.917969 C 216.765625 188.601562 210.085938 177.160156 199.078125 173.574219 " fill-opacity="1" fill-rule="nonzero"/></g><g clip-path="url(#3a128c25b3)"><path fill="#3858e9" d="M 76.628906 174.628906 L 37.089844 213.734375 C 36.671875 212.855469 36.46875 211.90625 36.46875 210.964844 C 36.480469 209.3125 37.125 207.660156 38.394531 206.402344 L 77.914062 167.316406 L 82.128906 163.152344 C 83.390625 161.894531 85.039062 161.273438 86.695312 161.273438 C 87.644531 161.273438 88.605469 161.484375 89.488281 161.90625 Z M 29.453125 203.882812 C 27.789062 203.882812 26.121094 203.25 24.855469 201.976562 C 23.59375 200.710938 22.96875 199.050781 22.976562 197.394531 C 22.984375 195.746094 23.621094 194.09375 24.890625 192.835938 L 60.09375 158.03125 L 68.632812 149.585938 C 69.894531 148.335938 71.542969 147.714844 73.191406 147.714844 C 74.867188 147.714844 76.53125 148.347656 77.792969 149.621094 C 80.3125 152.152344 80.296875 156.246094 77.757812 158.757812 L 73.304688 163.160156 L 34.019531 202.007812 C 32.757812 203.257812 31.101562 203.882812 29.453125 203.882812 Z M 15.960938 190.3125 C 15 190.3125 14.046875 190.113281 13.164062 189.691406 L 48.632812 154.613281 L 65.566406 137.863281 C 66.695312 140.269531 66.253906 143.214844 64.261719 145.191406 L 50.910156 158.398438 L 20.527344 188.441406 C 19.257812 189.691406 17.609375 190.3125 15.960938 190.3125 Z M 93.242188 162.6875 L 93.480469 162.46875 L 93.472656 162.460938 C 93.765625 162.144531 94.019531 161.800781 94.246094 161.449219 C 95.851562 158.855469 95.535156 155.402344 93.289062 153.136719 L 92.386719 152.238281 L 94.882812 149.769531 C 96.089844 148.574219 96.097656 146.625 94.898438 145.410156 L 91.949219 142.449219 L 106.429688 128.128906 L 108.316406 126.273438 L 110.183594 124.410156 L 114.132812 120.515625 L 116 118.664062 L 119.035156 115.667969 L 120.910156 113.8125 L 125.257812 109.515625 L 127.132812 107.652344 L 129.011719 105.796875 L 155.683594 79.417969 L 165.714844 69.496094 L 182.335938 53.066406 L 196.21875 47.378906 C 196.582031 47.238281 196.898438 46.996094 197.128906 46.667969 L 214.667969 22.496094 C 215.054688 21.949219 215.003906 21.203125 214.527344 20.726562 L 211.714844 17.910156 L 208.902344 15.078125 C 208.628906 14.804688 208.277344 14.675781 207.925781 14.675781 C 207.652344 14.675781 207.378906 14.753906 207.132812 14.929688 L 182.742188 32.214844 C 182.417969 32.441406 182.167969 32.75 182.019531 33.109375 L 176.203125 46.90625 L 162.363281 60.585938 L 148.894531 73.910156 L 122.957031 99.558594 L 121.078125 101.421875 L 119.203125 103.277344 L 114.8125 107.617188 L 112.933594 109.480469 L 109.910156 112.46875 L 108.035156 114.320312 L 104.136719 118.179688 L 100.382812 121.886719 L 85.820312 136.289062 L 82.15625 132.609375 C 81.554688 132.003906 80.753906 131.691406 79.960938 131.691406 C 79.175781 131.691406 78.382812 131.996094 77.78125 132.589844 L 75.289062 135.050781 L 74.390625 134.144531 C 73.269531 133.019531 71.851562 132.371094 70.386719 132.203125 C 70.125 132.167969 69.851562 132.152344 69.585938 132.152344 C 67.957031 132.152344 66.332031 132.734375 65.046875 133.890625 L 65.039062 133.882812 L 64.808594 134.113281 L 63.523438 135.386719 L 47.339844 151.386719 L 14.425781 183.933594 C 13.113281 185.234375 12.019531 186.660156 11.136719 188.179688 C 10.109375 189.972656 9.367188 191.894531 8.925781 193.875 C 8.617188 195.277344 8.460938 196.710938 8.449219 198.152344 C 8.433594 203.304688 10.378906 208.460938 14.304688 212.40625 C 18.25 216.367188 23.445312 218.355469 28.644531 218.355469 C 30.054688 218.355469 31.464844 218.214844 32.847656 217.914062 C 34.832031 217.503906 36.769531 216.773438 38.578125 215.753906 C 40.113281 214.890625 41.546875 213.8125 42.859375 212.519531 L 75.632812 180.113281 L 91.957031 163.96875 L 93.242188 162.6875 " fill-opacity="1" fill-rule="nonzero"/></g></svg>