<svg xmlns="http://www.w3.org/2000/svg" xmlns:xlink="http://www.w3.org/1999/xlink" width="300" zoomAndPan="magnify" viewBox="0 0 224.87999 225" height="300" preserveAspectRatio="xMidYMid meet" version="1.0"><defs><clipPath id="54b942b96a"><path d="M 8.257812 174 L 51 174 L 51 216.707031 L 8.257812 216.707031 Z M 8.257812 174 " clip-rule="nonzero"/></clipPath></defs><path fill="#3858e9" d="M 170.074219 29.328125 L 29.3125 170.089844 L 54.898438 195.675781 L 195.660156 54.914062 Z M 143.257812 85.355469 L 85.347656 143.269531 C 85.105469 143.507812 84.828125 143.695312 84.511719 143.824219 C 84.195312 143.957031 83.867188 144.019531 83.527344 144.019531 C 83.1875 144.019531 82.859375 143.953125 82.542969 143.824219 C 82.226562 143.695312 81.949219 143.507812 81.707031 143.265625 C 81.464844 143.023438 81.28125 142.746094 81.148438 142.429688 C 81.019531 142.117188 80.953125 141.789062 80.953125 141.445312 C 80.953125 141.105469 81.019531 140.777344 81.148438 140.460938 C 81.28125 140.148438 81.464844 139.867188 81.707031 139.625 L 139.632812 81.730469 C 139.871094 81.488281 140.152344 81.304688 140.464844 81.171875 C 140.78125 81.042969 141.109375 80.976562 141.449219 80.976562 C 141.792969 80.976562 142.121094 81.042969 142.4375 81.171875 C 142.75 81.304688 143.027344 81.488281 143.269531 81.730469 C 143.511719 81.972656 143.699219 82.25 143.828125 82.566406 C 143.960938 82.882812 144.023438 83.210938 144.023438 83.550781 C 144.023438 83.890625 143.960938 84.21875 143.828125 84.535156 C 143.699219 84.851562 143.511719 85.128906 143.273438 85.371094 Z M 143.257812 85.355469 " fill-opacity="1" fill-rule="nonzero"/><path fill="#3858e9" d="M 212.976562 37.59375 L 199.292969 51.277344 L 173.707031 25.695312 L 187.390625 12.011719 C 187.832031 11.574219 188.308594 11.183594 188.824219 10.839844 C 189.339844 10.492188 189.886719 10.203125 190.460938 9.964844 C 191.035156 9.726562 191.625 9.546875 192.234375 9.429688 C 192.84375 9.308594 193.457031 9.246094 194.078125 9.246094 C 194.699219 9.246094 195.316406 9.308594 195.921875 9.429688 C 196.53125 9.546875 197.125 9.726562 197.699219 9.964844 C 198.269531 10.203125 198.816406 10.492188 199.332031 10.839844 C 199.847656 11.183594 200.328125 11.574219 200.765625 12.011719 L 212.972656 24.21875 C 213.414062 24.660156 213.804688 25.136719 214.148438 25.65625 C 214.492188 26.171875 214.785156 26.714844 215.019531 27.289062 C 215.257812 27.863281 215.4375 28.453125 215.558594 29.0625 C 215.679688 29.671875 215.738281 30.285156 215.738281 30.90625 C 215.738281 31.527344 215.679688 32.144531 215.558594 32.753906 C 215.4375 33.359375 215.257812 33.953125 215.023438 34.527344 C 214.785156 35.101562 214.496094 35.644531 214.148438 36.160156 C 213.804688 36.679688 213.414062 37.15625 212.976562 37.59375 Z M 212.976562 37.59375 " fill-opacity="1" fill-rule="nonzero"/><g clip-path="url(#54b942b96a)"><path fill="#3858e9" d="M 50.40625 198.457031 L 8.265625 216.722656 L 26.53125 174.582031 Z M 50.40625 198.457031 " fill-opacity="1" fill-rule="nonzero"/></g></svg>