<svg viewBox="0 0 512 512" xmlns="http://www.w3.org/2000/svg">
        <circle cx="160" cy="160" fill="#fd8087" r="160" />
        <path
            d="M262.368 37.029c23.12 27.743 37.029 63.431 37.029 102.368 0 88.366-71.634 160-160 160-38.937 0-74.625-13.909-102.368-37.029C66.378 297.586 110.571 320 160 320c88.366 0 160-71.634 160-160 0-49.429-22.414-93.622-57.632-122.971z"
            fill="#fe646f"
        />
        <path
            d="m208.897 156.358 49.284-49.284a5.15 5.15 0 0 0 0-7.284l-37.97-37.97a5.15 5.15 0 0 0-7.284 0l-49.284 49.284a5.15 5.15 0 0 1-7.284 0L107.075 61.82a5.15 5.15 0 0 0-7.284 0l-37.97 37.97a5.15 5.15 0 0 0 0 7.284l49.284 49.284a5.15 5.15 0 0 1 0 7.284l-49.284 49.284a5.15 5.15 0 0 0 0 7.284l37.97 37.97a5.15 5.15 0 0 0 7.284 0l49.284-49.284a5.15 5.15 0 0 1 7.284 0l49.284 49.284a5.15 5.15 0 0 0 7.284 0l37.97-37.97a5.15 5.15 0 0 0 0-7.284l-49.284-49.284a5.151 5.151 0 0 1 0-7.284z"
            fill="#fff"
        />
        <path
            d="m419.081 258.898-16.109 9.301c-7.007 4.045-9.408 13.005-5.362 20.012l-11.975-20.742c-4.045-7.007-13.005-9.408-20.012-5.362l-16.109 9.301c-7.007 4.045-9.408 13.005-5.362 20.012-4.046-7.007-13.005-9.408-20.012-5.362l-16.109 9.301c-7.007 4.045-9.408 13.005-5.362 20.012l-41.857-72.498c-6.614-11.455-21.262-15.38-32.717-8.766-11.455 6.614-15.38 21.262-8.767 32.717l89.39 154.829c1.147 1.987-.681 4.369-2.897 3.775l-26.229-7.028c-21.983-5.89-44.578 7.156-50.468 29.138l-1.758 6.561c-1.472 5.496 1.789 11.144 7.285 12.617l155.648 41.706c23.969 6.725 50.523 4.159 73.786-9.272 45.821-26.455 61.521-85.047 35.066-130.868l-60.056-104.02c-4.047-7.008-13.007-9.409-20.014-5.364z"
            fill="#978ecb"
        />
        <g fill="#8379c1">
            <path d="m499.149 368.281-7.976-13.815c18.412 43.837 1.773 95.563-40.483 119.959-23.263 13.431-49.816 15.996-73.786 9.272L230.11 444.363a42.087 42.087 0 0 0-.988 3.174l-1.758 6.561c-1.473 5.496 1.789 11.144 7.284 12.617l155.648 41.706c23.969 6.725 50.523 4.159 73.786-9.272 45.822-26.455 61.522-85.047 35.067-130.868zM346.54 383.624c1.311 0 2.64-.334 3.856-1.037a7.726 7.726 0 0 0 2.828-10.554l-44.5-77.076-.695.401c-7.004 4.044-9.406 12.998-5.367 20.004l37.18 64.398a7.725 7.725 0 0 0 6.698 3.864zM394.707 348.082l-44.499-77.076-.695.401c-7.001 4.042-9.403 12.989-5.373 19.993l37.185 64.408a7.723 7.723 0 0 0 10.554 2.828 7.725 7.725 0 0 0 2.828-10.554zM429.507 335.723c1.311 0 2.64-.334 3.856-1.037a7.726 7.726 0 0 0 2.828-10.554l-32.524-56.334-.695.401c-6.999 4.041-9.402 12.984-5.376 19.988l25.214 43.672a7.72 7.72 0 0 0 6.697 3.864z" />
        </g>
    </svg>