<svg xmlns="http://www.w3.org/2000/svg" xmlns:xlink="http://www.w3.org/1999/xlink" width="50" zoomAndPan="magnify" viewBox="0 0 37.5 37.499999" height="50" preserveAspectRatio="xMidYMid meet" version="1.0"><defs><clipPath id="67d6985107"><path d="M 17 0.488281 L 20 0.488281 L 20 7 L 17 7 Z M 17 0.488281 " clip-rule="nonzero"/></clipPath><clipPath id="9c29e95278"><path d="M 17 31 L 20 31 L 20 37.007812 L 17 37.007812 Z M 17 31 " clip-rule="nonzero"/></clipPath><clipPath id="be278addcc"><path d="M 0.488281 17 L 7 17 L 7 20 L 0.488281 20 Z M 0.488281 17 " clip-rule="nonzero"/></clipPath><clipPath id="adafcffaf3"><path d="M 31 17 L 37.007812 17 L 37.007812 20 L 31 20 Z M 31 17 " clip-rule="nonzero"/></clipPath></defs><path fill="#ffffff" d="M 18.863281 9.167969 C 13.53125 9.167969 9.167969 13.53125 9.167969 18.863281 C 9.167969 24.191406 13.53125 28.558594 18.863281 28.558594 C 24.191406 28.558594 28.558594 24.191406 28.558594 18.863281 C 28.558594 13.53125 24.191406 9.167969 18.863281 9.167969 Z M 18.863281 26.527344 C 14.648438 26.527344 11.199219 23.074219 11.199219 18.863281 C 11.199219 14.648438 14.648438 11.199219 18.863281 11.199219 C 23.074219 11.199219 26.527344 14.648438 26.527344 18.863281 C 26.527344 23.074219 23.074219 26.527344 18.863281 26.527344 Z M 18.863281 26.527344 " fill-opacity="1" fill-rule="nonzero"/><g clip-path="url(#67d6985107)"><path fill="#ffffff" d="M 18.863281 6.375 C 19.421875 6.375 19.878906 5.917969 19.878906 5.359375 L 19.878906 1.503906 C 19.878906 0.945312 19.421875 0.488281 18.863281 0.488281 C 18.304688 0.488281 17.847656 0.945312 17.847656 1.503906 L 17.847656 5.359375 C 17.847656 5.917969 18.304688 6.375 18.863281 6.375 Z M 18.863281 6.375 " fill-opacity="1" fill-rule="nonzero"/></g><g clip-path="url(#9c29e95278)"><path fill="#ffffff" d="M 18.863281 31.347656 C 18.304688 31.347656 17.847656 31.804688 17.847656 32.363281 L 17.847656 36.222656 C 17.847656 36.78125 18.304688 37.238281 18.863281 37.238281 C 19.421875 37.238281 19.878906 36.78125 19.878906 36.222656 L 19.878906 32.363281 C 19.878906 31.804688 19.421875 31.347656 18.863281 31.347656 Z M 18.863281 31.347656 " fill-opacity="1" fill-rule="nonzero"/></g><path fill="#ffffff" d="M 28.40625 10.335938 C 28.660156 10.335938 28.914062 10.234375 29.117188 10.03125 L 31.855469 7.289062 C 32.261719 6.882812 32.261719 6.273438 31.855469 5.867188 C 31.449219 5.460938 30.839844 5.460938 30.4375 5.867188 L 27.695312 8.609375 C 27.289062 9.015625 27.289062 9.625 27.695312 10.03125 C 27.898438 10.234375 28.152344 10.335938 28.40625 10.335938 Z M 28.40625 10.335938 " fill-opacity="1" fill-rule="nonzero"/><path fill="#ffffff" d="M 8.609375 27.695312 L 5.867188 30.4375 C 5.460938 30.839844 5.460938 31.449219 5.867188 31.855469 C 6.070312 32.058594 6.324219 32.160156 6.578125 32.160156 C 6.832031 32.160156 7.085938 32.058594 7.289062 31.855469 L 10.03125 29.117188 C 10.4375 28.710938 10.4375 28.101562 10.03125 27.695312 C 9.625 27.289062 9.015625 27.289062 8.609375 27.695312 Z M 8.609375 27.695312 " fill-opacity="1" fill-rule="nonzero"/><g clip-path="url(#be278addcc)"><path fill="#ffffff" d="M 6.375 18.863281 C 6.375 18.304688 5.917969 17.847656 5.359375 17.847656 L 1.503906 17.847656 C 0.945312 17.847656 0.488281 18.304688 0.488281 18.863281 C 0.488281 19.421875 0.945312 19.878906 1.503906 19.878906 L 5.359375 19.878906 C 5.917969 19.878906 6.375 19.421875 6.375 18.863281 Z M 6.375 18.863281 " fill-opacity="1" fill-rule="nonzero"/></g><g clip-path="url(#adafcffaf3)"><path fill="#ffffff" d="M 36.222656 17.847656 L 32.363281 17.847656 C 31.804688 17.847656 31.347656 18.304688 31.347656 18.863281 C 31.347656 19.421875 31.804688 19.878906 32.363281 19.878906 L 36.222656 19.878906 C 36.78125 19.878906 37.238281 19.421875 37.238281 18.863281 C 37.238281 18.304688 36.78125 17.847656 36.222656 17.847656 Z M 36.222656 17.847656 " fill-opacity="1" fill-rule="nonzero"/></g><path fill="#ffffff" d="M 8.609375 10.03125 C 8.8125 10.234375 9.066406 10.335938 9.320312 10.335938 C 9.574219 10.335938 9.828125 10.234375 10.03125 10.03125 C 10.4375 9.625 10.4375 9.015625 10.03125 8.609375 L 7.289062 5.867188 C 6.882812 5.460938 6.273438 5.460938 5.867188 5.867188 C 5.460938 6.273438 5.460938 6.882812 5.867188 7.289062 Z M 8.609375 10.03125 " fill-opacity="1" fill-rule="nonzero"/><path fill="#ffffff" d="M 29.117188 27.695312 C 28.710938 27.289062 28.101562 27.289062 27.695312 27.695312 C 27.289062 28.101562 27.289062 28.710938 27.695312 29.117188 L 30.4375 31.855469 C 30.640625 32.058594 30.890625 32.160156 31.144531 32.160156 C 31.398438 32.160156 31.652344 32.058594 31.855469 31.855469 C 32.261719 31.449219 32.261719 30.839844 31.855469 30.4375 Z M 29.117188 27.695312 " fill-opacity="1" fill-rule="nonzero"/></svg>