<svg
        height="512"
        viewBox="0 0 64 64"
        width="512"
        xmlns="http://www.w3.org/2000/svg"
    >
        <rect
            fill="#ef5451"
            height="25.604"
            rx="12.802"
            width="58"
            x="3"
            y="3"
        />
        <path
            d="M5 17.802C5 10.732 10.732 5 17.802 5h32.396a12.74 12.74 0 0 1 7.992 2.81C55.844 4.881 52.243 3 48.198 3H15.802C8.732 3 3 8.732 3 15.802c0 4.045 1.881 7.646 4.81 9.992A12.737 12.737 0 0 1 5 17.802z"
            fill="#e53a35"
        />
        <circle cx="16.857" cy="15.802" fill="#e4f2fc" r="9" />
        <path
            d="M9.857 17.802a9 9 0 0 1 9-9 8.95 8.95 0 0 1 5.279 1.721 8.977 8.977 0 0 0-7.279-3.721 9 9 0 0 0-9 9 8.981 8.981 0 0 0 3.721 7.279 8.948 8.948 0 0 1-1.721-5.279z"
            fill="#bdddf4"
        />
        <rect
            fill="#9ccc65"
            height="25.604"
            rx="12.802"
            transform="rotate(180 32 48.198)"
            width="58"
            x="3"
            y="35.396"
        />
        <path
            d="M5 50.198c0-7.07 5.732-12.802 12.802-12.802h32.396a12.74 12.74 0 0 1 7.992 2.81c-2.346-2.929-5.947-4.81-9.992-4.81H15.802C8.732 35.396 3 41.128 3 48.198c0 4.045 1.881 7.646 4.81 9.992A12.737 12.737 0 0 1 5 50.198z"
            fill="#7cb342"
        />
        <circle cx="47.143" cy="48.198" fill="#e4f2fc" r="9" />
    </svg>