<svg
            id="fi_5536589"
            enableBackground="new 0 0 512 512"
            height="512"
            viewBox="0 0 512 512"
            width="512"
            xmlns="http://www.w3.org/2000/svg"
        >
            <g>
                <g>
                    <path
                        d="m63.357 324.678 21.214 21.213 12.665-12.666v76.823h30v-76.824l12.667 12.667 21.212-21.213-48.879-48.881z"
                        fill="#6dfbee"
                    ></path>
                    <path
                        d="m448.079 381.809-21.213-21.213-54.323 54.323v-17.912h-30v69.126h69.126v-30h-17.913z"
                        fill="#fadf35"
                    ></path>
                </g>
                <g>
                    <path
                        d="m96.248 242.02h30v-26h86.252v265.98h-25.532v30h69.032l18.227-191.49-18.227-191.49h-159.752z"
                        fill="#ff89f2"
                    ></path>
                    <path
                        d="m85.5 33.879 12.666-12.666-21.213-21.213-48.879 48.879 48.879 48.879 21.213-21.213-12.666-12.666h170.5l18.227-16.075-18.227-13.925z"
                        fill="#a9bbf6"
                    ></path>
                    <path
                        d="m435.047 97.758 48.879-48.879-48.879-48.879-21.213 21.213 12.666 12.666h-170.5v30h170.5l-12.666 12.666z"
                        fill="#a393f4"
                    ></path>
                </g>
                <path
                    d="m325.033 512v-30h-25.533v-265.98h96.252v26h30v-113h-169.752v382.98z"
                    fill="#e95be3"
                ></path>
            </g>
        </svg>