<svg
            id="fi_7436349"
            enableBackground="new 0 0 512 512"
            height="512"
            viewBox="0 0 512 512"
            width="512"
            xmlns="http://www.w3.org/2000/svg"
        >
            <g>
                <circle cx="256" cy="256" fill="#5ecef4" r="165"></circle>
                <path
                    d="m421 256c0-90.981-74.019-165-165-165v330c90.981 0 165-74.019 165-165z"
                    fill="#4895ff"
                ></path>
                <path
                    d="m201 326v-140c0-12.135 13.66-19.248 23.602-12.288l100 70c8.531 5.972 8.531 18.605 0 24.577l-100 70c-9.942 6.958-23.602-.154-23.602-12.289z"
                    fill="#fff5f5"
                ></path>
                <path
                    d="m324.602 243.711-68.602-48.021v120.62l68.602-48.021c8.531-5.972 8.531-18.606 0-24.578z"
                    fill="#ebe1dc"
                ></path>
                <path
                    d="m373.418 467.029c-3.575-7.472-12.528-10.634-20.005-7.056-30.544 14.616-63.318 22.027-97.413 22.027-46.926 0-91.665-14.211-129.313-40.587h8.9c8.284 0 15-6.716 15-15s-6.716-15-15-15h-50c-8.284 0-15 6.716-15 15v50c0 8.284 6.716 15 15 15s15-6.716 15-15v-16.952c44.418 34.073 98.493 52.539 155.413 52.539 38.612 0 75.743-8.399 110.362-24.966 7.473-3.575 10.632-12.532 7.056-20.005z"
                    fill="#51489a"
                ></path>
                <path
                    d="m426.413 20.587c-8.284 0-15 6.716-15 15v16.952c-44.417-34.072-98.492-52.539-155.413-52.539-38.612 0-75.743 8.399-110.363 24.966-7.473 3.575-10.632 12.532-7.056 20.005 3.577 7.473 12.535 10.634 20.005 7.056 30.545-14.616 63.32-22.027 97.414-22.027 46.926 0 91.665 14.211 129.313 40.587h-8.9c-8.284 0-15 6.716-15 15s6.716 15 15 15h50c8.284 0 15-6.716 15-15v-50c0-8.284-6.716-15-15-15z"
                    fill="#51489a"
                ></path>
                <path
                    d="m385.313 70.587h-8.9c-8.284 0-15 6.716-15 15s6.716 15 15 15h50c8.284 0 15-6.716 15-15v-50c0-8.284-6.716-15-15-15s-15 6.716-15 15v16.952c-44.417-34.072-98.492-52.539-155.413-52.539v30c46.926 0 91.665 14.211 129.313 40.587z"
                    fill="#39326c"
                ></path>
                <path
                    d="m366.362 487.034c7.473-3.575 10.632-12.532 7.056-20.005-3.575-7.472-12.528-10.634-20.005-7.056-30.544 14.616-63.318 22.027-97.413 22.027v30c38.612 0 75.743-8.399 110.362-24.966z"
                    fill="#39326c"
                ></path>
                <path
                    d="m85.587 70.587h-50c-8.284 0-15 6.716-15 15s6.716 15 15 15h16.952c-34.073 44.417-52.539 98.492-52.539 155.413 0 38.612 8.399 75.743 24.965 110.362 2.577 5.385 7.946 8.529 13.542 8.529 2.17 0 4.375-.474 6.464-1.474 7.473-3.575 10.632-12.532 7.056-20.005-14.616-30.543-22.027-63.317-22.027-97.412 0-46.926 14.211-91.665 40.587-129.313v8.9c0 8.284 6.716 15 15 15s15-6.716 15-15v-50c0-8.284-6.715-15-15-15z"
                    fill="#51489a"
                ></path>
                <path
                    d="m476.413 411.413h-16.952c34.072-44.417 52.539-98.492 52.539-155.413 0-38.612-8.399-75.743-24.966-110.362-3.575-7.473-12.527-10.634-20.005-7.056-7.473 3.575-10.632 12.532-7.056 20.005 14.616 30.544 22.027 63.318 22.027 97.413 0 46.926-14.211 91.665-40.587 129.313v-8.9c0-8.284-6.716-15-15-15s-15 6.716-15 15v50c0 8.284 6.716 15 15 15h50c8.284 0 15-6.716 15-15s-6.716-15-15-15z"
                    fill="#39326c"
                ></path>
            </g>
        </svg>